<?xml version="1.0" encoding="utf-8"?>
<!-- Generator: Adobe Illustrator 16.0.3, SVG Export Plug-In . SVG Version: 6.00 Build 0)  -->
<!DOCTYPE svg PUBLIC "-//W3C//DTD SVG 1.1//EN" "http://www.w3.org/Graphics/SVG/1.1/DTD/svg11.dtd">
<svg version="1.1" xmlns="http://www.w3.org/2000/svg" xmlns:xlink="http://www.w3.org/1999/xlink" x="0px" y="0px"
	 width="383.578px" height="252.768px" viewBox="0 0 383.578 252.768" enable-background="new 0 0 383.578 252.768"
	 xml:space="preserve">
<g id="OBJECT">
	<g>
		
			<polygon fill="#5E3120" stroke="#5E3120" stroke-width="4.6285" stroke-linecap="round" stroke-linejoin="round" stroke-miterlimit="10" points="
			317.691,208.926 380.947,135.641 178.816,192.219 130.217,247.76 		"/>
		<polyline fill="#C9C7B8" points="368.412,132.362 197.875,179.332 242.093,196.793 294.963,213.586 301.428,216.281 		"/>
		<path fill="#EDEDDD" d="M300.271,215.264c0,0-1.865-4.119,22.435-27.127l45.706-55.774c0,0,2.899-0.046,4.388,5.474
			l-60.493,75.537L300.271,215.264z"/>
		<path fill="#F4F4EA" d="M299.788,213.586c0,0,62.26-73.702,62.26-84.695c0,0-152.639,47.352-161.418,48.021l28.929,20.25
			L299.788,213.586z"/>
		<g>
			<path fill="#C9C7B8" d="M311.883,205.822c0,0,0.859-1.115,2.363-3.068c1.517-1.941,3.625-4.764,6.26-8.066
				c5.249-6.619,12.248-15.445,19.248-24.273c7.127-8.723,14.254-17.445,19.6-23.988c2.665-3.277,4.97-5.941,6.543-7.838
				c1.586-1.887,2.492-2.965,2.492-2.965l0.045,0.036l-56.506,70.2L311.883,205.822z"/>
		</g>
		<g>
			<path fill="#C9C7B8" d="M369.784,137.588c0,0-0.89,1.134-2.447,3.118c-1.569,1.975-3.753,4.843-6.479,8.198
				c-5.431,6.729-12.671,15.701-19.912,24.674c-7.368,8.867-14.736,17.734-20.262,24.385c-2.755,3.332-5.135,6.039-6.761,7.967
				c-1.638,1.918-2.574,3.016-2.574,3.016l-0.045-0.037l58.435-71.357L369.784,137.588z"/>
		</g>
		<g>
			<path fill="#C9C7B8" d="M314.39,207.365c0,0,0.809-1.035,2.224-2.846c1.427-1.801,3.407-4.42,5.889-7.477
				c4.942-6.133,11.532-14.309,18.122-22.484c6.717-8.072,13.435-16.145,18.472-22.199c2.511-3.033,4.687-5.492,6.171-7.246
				c1.496-1.744,2.351-2.741,2.351-2.741l0.045,0.037l-53.228,64.993L314.39,207.365z"/>
		</g>
		<g>
			<path fill="#AFADA1" d="M341.625,144.512c-0.001,0-0.368,0.805-1.049,2.191c-0.334,0.696-0.774,1.523-1.261,2.482
				c-0.474,0.965-1.061,2.025-1.756,3.156c-0.677,1.141-1.405,2.381-2.225,3.662c-0.207,0.318-0.416,0.643-0.628,0.969
				c-0.23,0.315-0.463,0.635-0.698,0.957c-0.472,0.643-0.954,1.301-1.443,1.969c-0.973,1.338-1.977,2.723-2.997,4.127
				c-1.018,1.408-2.027,2.855-3.014,4.322c-1.032,1.432-2.087,2.85-3.138,4.236c-1.032,1.404-2.152,2.699-3.204,3.979
				c-0.533,0.635-1.059,1.258-1.571,1.867c-0.509,0.615-1.025,1.199-1.554,1.746c-1.033,1.113-2.031,2.146-2.951,3.1
				c-0.909,0.963-1.772,1.818-2.568,2.545c-0.786,0.736-1.472,1.377-2.036,1.904c-1.146,1.037-1.801,1.629-1.801,1.629l-0.07-0.07
				c0,0,0.577-0.67,1.588-1.838c0.514-0.574,1.138-1.273,1.854-2.074c0.717-0.799,1.541-1.684,2.395-2.691
				c0.865-0.996,1.8-2.078,2.813-3.199c1.02-1.115,2.017-2.359,3.114-3.588c1.085-1.242,2.229-2.508,3.308-3.861
				c1.102-1.334,2.238-2.678,3.388-4.016c1.096-1.377,2.167-2.775,3.198-4.17c1.056-1.375,1.938-2.842,2.801-4.248
				c0.854-1.414,1.726-2.752,2.475-4.063c0.771-1.297,1.546-2.495,2.256-3.605c0.726-1.1,1.331-2.15,1.896-3.064
				c0.566-0.914,1.044-1.721,1.466-2.368c0.83-1.302,1.327-2.034,1.326-2.034L341.625,144.512z"/>
		</g>
		<g>
			<path fill="#AFADA1" d="M325.772,148.735c0,0-0.35,0.935-1.002,2.554c-0.321,0.811-0.742,1.781-1.213,2.9
				c-0.555,1.086-1.226,2.293-1.949,3.613c-0.376,0.652-0.71,1.369-1.162,2.041c-0.448,0.676-0.93,1.361-1.421,2.068
				c-0.497,0.703-1.014,1.422-1.554,2.145c-0.537,0.727-1.199,1.383-1.811,2.092c-1.262,1.4-2.521,2.844-3.766,4.359
				c-0.618,0.762-1.241,1.529-1.866,2.299c-0.643,0.762-1.132,1.631-1.699,2.445c-1.082,1.668-2.203,3.289-3.215,4.973
				c-1.044,1.658-2.071,3.289-3.065,4.867c-1,1.578-1.967,3.111-2.927,4.523c-0.953,1.422-1.834,2.76-2.626,4.018
				c-0.376,0.639-0.735,1.25-1.077,1.832c-0.319,0.594-0.623,1.158-0.908,1.688c-0.256,0.543-0.495,1.053-0.717,1.523
				c-0.218,0.475-0.366,0.928-0.537,1.326c-0.351,0.797-0.5,1.461-0.651,1.902c-0.143,0.445-0.219,0.682-0.219,0.682l-0.098-0.02
				c0,0,0.046-0.246,0.131-0.705c0.101-0.457,0.189-1.148,0.459-1.984c0.214-0.857,0.598-1.852,1.045-2.996
				c0.254-0.559,0.524-1.15,0.81-1.777c0.32-0.607,0.657-1.246,1.009-1.912c0.739-1.307,1.572-2.715,2.508-4.148
				c0.926-1.443,1.896-2.957,2.928-4.512c1.038-1.555,2.111-3.16,3.201-4.791c1.07-1.641,2.305-3.234,3.517-4.822
				c1.163-1.631,2.505-3.102,3.762-4.607c1.259-1.502,2.464-3.027,3.586-4.502c0.552-0.748,1.156-1.434,1.637-2.189
				c0.476-0.76,0.951-1.492,1.421-2.201c0.475-0.705,0.933-1.393,1.395-2.047c0.466-0.652,0.809-1.344,1.197-1.975
				c0.748-1.278,1.428-2.455,2.07-3.48c0.555-1.08,1.014-2.033,1.426-2.803c0.808-1.547,1.293-2.42,1.293-2.42L325.772,148.735z"/>
		</g>
		<g>
			<path fill="#AFADA1" d="M314.158,152.273c0,0-0.282,0.793-0.775,2.18c-0.236,0.695-0.713,1.475-1.163,2.414
				c-0.473,0.93-1.14,1.885-1.836,2.951c-0.753,1.021-1.551,2.15-2.502,3.244c-0.912,1.133-1.952,2.248-3.012,3.414
				c-1.078,1.148-2.163,2.352-3.264,3.574c-0.533,0.627-1.07,1.258-1.609,1.893c-0.547,0.633-1.114,1.256-1.611,1.924
				c-0.511,0.662-1.021,1.324-1.53,1.982c-0.507,0.662-0.93,1.381-1.394,2.061c-0.44,0.697-0.906,1.373-1.283,2.088
				c-0.387,0.711-0.745,1.426-1.104,2.121c-0.756,1.375-1.279,2.809-1.929,4.086c-0.609,1.299-1.135,2.549-1.662,3.686
				c-0.511,1.143-0.903,2.223-1.318,3.154c-0.423,0.932-0.685,1.781-0.959,2.463c-0.524,1.369-0.85,2.148-0.85,2.148l-0.096-0.027
				c0,0,0.183-0.82,0.546-2.25c0.181-0.717,0.404-1.586,0.743-2.555c0.326-0.975,0.682-2.082,1.149-3.258
				c0.507-1.16,0.999-2.445,1.655-3.738c0.337-0.645,0.69-1.301,1.064-1.963c0.359-0.672,0.751-1.344,1.185-2.006
				c0.842-1.34,1.684-2.734,2.598-4.115c0.855-1.418,1.82-2.799,2.752-4.211c0.928-1.426,1.967-2.715,2.981-4.053
				c1.061-1.277,2.125-2.516,3.165-3.697c1.036-1.178,2.038-2.316,2.987-3.395c0.958-1.072,1.798-2.127,2.595-3.09
				c0.388-0.488,0.719-0.984,1.057-1.441c0.321-0.467,0.68-0.881,0.924-1.318c0.517-0.861,1.029-1.58,1.354-2.244
				c0.669-1.311,1.051-2.061,1.051-2.061L314.158,152.273z"/>
		</g>
		<g>
			<path fill="#AFADA1" d="M301.085,157.406c0,0-0.285,0.594-0.822,1.607c-0.262,0.512-0.614,1.111-1,1.811
				c-0.196,0.348-0.396,0.723-0.627,1.105c-0.253,0.373-0.519,0.764-0.796,1.172c-0.571,0.805-1.185,1.686-1.87,2.588
				c-0.676,0.912-1.502,1.766-2.299,2.705c-0.817,0.92-1.636,1.889-2.419,2.91c-0.784,1.021-1.558,2.076-2.305,3.15
				c-0.711,1.092-1.469,2.172-2.156,3.246c-0.722,1.057-1.373,2.135-2.016,3.168c-0.598,1.057-1.224,2.053-1.743,3.035
				c-0.527,0.979-1.045,1.896-1.446,2.779c-0.21,0.439-0.411,0.859-0.603,1.258c-0.159,0.412-0.331,0.795-0.483,1.16
				c-0.321,0.725-0.574,1.369-0.748,1.91c-0.39,1.078-0.612,1.693-0.612,1.693l-0.098-0.021c0,0,0.106-0.646,0.327-1.781
				c0.086-0.576,0.286-1.246,0.521-2.018c0.116-0.385,0.23-0.801,0.373-1.23c0.166-0.42,0.342-0.861,0.524-1.322
				c0.19-0.457,0.362-0.949,0.591-1.432c0.237-0.48,0.481-0.977,0.733-1.486c0.241-0.518,0.53-1.023,0.84-1.533
				c0.306-0.512,0.603-1.045,0.943-1.561c0.696-1.021,1.39-2.096,2.177-3.129c0.764-1.055,1.598-2.053,2.439-3.066
				c0.862-0.992,1.697-2,2.497-3.012c0.8-1.01,1.544-2.037,2.237-3.051c0.7-1.004,1.378-1.975,2.02-2.896
				c0.64-0.914,1.279-1.754,1.864-2.531c0.298-0.389,0.583-0.76,0.854-1.111c0.245-0.375,0.498-0.717,0.726-1.045
				c0.463-0.65,0.852-1.229,1.198-1.688c0.683-0.922,1.094-1.438,1.094-1.438L301.085,157.406z"/>
		</g>
		<g>
			<path fill="#AFADA1" d="M288.236,161.363c0,0-0.288,0.463-0.817,1.25c-0.537,0.779-1.3,1.898-2.275,3.191
				c-0.481,0.652-1.002,1.359-1.578,2.088c-0.586,0.723-1.083,1.555-1.688,2.359c-0.592,0.813-1.203,1.652-1.824,2.508
				c-0.63,0.85-1.285,1.703-1.96,2.547c-0.595,0.898-1.195,1.795-1.726,2.715c-0.539,0.912-1.028,1.838-1.47,2.748
				c-0.438,0.912-0.911,1.764-1.277,2.615c-0.384,0.842-0.786,1.617-1.151,2.336c-1.483,2.863-2.696,4.686-2.696,4.686l-0.092-0.041
				c0,0,0.677-2.063,2.027-5.023c0.344-0.736,0.709-1.539,1.137-2.367c0.204-0.418,0.458-0.824,0.743-1.225
				c0.274-0.406,0.555-0.822,0.84-1.244c0.58-0.838,1.146-1.721,1.678-2.641c0.542-0.916,1.03-1.885,1.525-2.852
				c0.552-0.934,1.122-1.857,1.699-2.758c0.586-0.896,1.163-1.777,1.722-2.631c0.285-0.422,0.565-0.838,0.841-1.244
				c0.27-0.412,0.551-0.799,0.861-1.145c0.591-0.715,1.173-1.373,1.71-1.98c1.061-1.225,1.994-2.205,2.645-2.895
				c0.658-0.682,1.049-1.061,1.049-1.061L288.236,161.363z"/>
		</g>
		<g>
			<path fill="#AFADA1" d="M275.547,163.764c0,0-0.288,0.461-0.817,1.248c-0.537,0.781-1.3,1.898-2.275,3.193
				c-0.481,0.652-1.002,1.359-1.578,2.086c-0.586,0.725-1.083,1.557-1.688,2.359c-0.591,0.814-1.202,1.654-1.823,2.51
				c-0.63,0.848-1.286,1.701-1.961,2.547c-0.594,0.896-1.194,1.793-1.725,2.713c-0.54,0.914-1.029,1.838-1.47,2.748
				c-0.438,0.912-0.912,1.764-1.277,2.615c-0.385,0.842-0.787,1.617-1.152,2.336c-1.483,2.865-2.696,4.686-2.696,4.686l-0.092-0.041
				c0,0,0.677-2.061,2.028-5.023c0.344-0.736,0.709-1.539,1.137-2.365c0.203-0.42,0.458-0.824,0.742-1.227
				c0.275-0.406,0.556-0.82,0.841-1.242c0.58-0.838,1.146-1.721,1.678-2.643c0.542-0.916,1.03-1.885,1.524-2.852
				c0.552-0.932,1.123-1.855,1.7-2.756c0.586-0.896,1.163-1.779,1.722-2.631c0.285-0.424,0.565-0.84,0.84-1.246
				c0.271-0.41,0.552-0.799,0.862-1.143c0.591-0.715,1.173-1.373,1.71-1.98c1.061-1.225,1.994-2.205,2.645-2.895
				c0.658-0.684,1.049-1.061,1.049-1.061L275.547,163.764z"/>
		</g>
		<g>
			<g>
				<g>
					<path fill="#425560" d="M286.524,189.109c0.858,1.592,1.606,3.391,1.254,5.166c-0.637,3.207-4.343,4.641-7.526,5.389
						c-14.114,3.324-28.813,4.15-43.211,2.434c-3.719-0.443-7.619-1.145-10.48-3.559c-3.732-3.15-4.811-8.615-3.931-13.42
						c0.879-4.805,3.396-9.129,5.871-13.34c1.477-2.512,2.986-5.066,5.148-7.02C247.966,151.828,279.678,176.41,286.524,189.109z"/>
					<path fill="#4E6472" d="M250.333,180.258c7.696,3.43,15.797,9.133,16.43,17.535c0.149,1.99-0.246,4.186-1.747,5.502
						c-0.913,0.801-2.117,1.174-3.294,1.477c-5.564,1.43-11.345,1.76-17.081,2.084c-17.704,0.998-36.463,1.775-52.05-6.68
						c-3.236-1.758-6.383-4.01-8.116-7.26c-6.868-12.871,17.198-18.148,25.602-19.207
						C223.713,171.99,237.84,174.693,250.333,180.258z"/>
					<path fill="#E0492B" d="M183.258,189.096c24.453-2.744,50.696-12.111,71.864-24.66c1.379-0.816,2.826-1.742,3.467-3.211
						c0.539-1.234,0.412-2.646,0.259-3.984c-1.993-17.344-6.878-34.352-14.392-50.109c-0.933-1.957-1.94-3.941-3.535-5.41
						c-2.074-1.909-4.91-2.737-7.679-3.268c-15.246-2.918-42.154,2.227-46.159,19.815
						C181.965,140.748,177.324,166.564,183.258,189.096z"/>
					<path opacity="0.2" fill="#352D2C" d="M227.387,114.11c-2.242,1.843-5.18,3.075-8.269,3.373
						c-4.846,0.467-9.6-1.325-13.771-3.488c3.763-2.067,8.357-2.595,12.763-3.243c4.485-0.66,8.241-1.797,12.076-3.844
						C231.89,109.084,229.295,112.541,227.387,114.11z"/>
				</g>
			</g>
			<path opacity="0.2" fill="#352D2C" d="M238.585,131.957l1.419,2.27c0,0,6.397,18.816,8.296,34.047
				c0,0,3.484,18.074,16.826,13.873c0,0,2.684-2.348,3.92-0.957c0,0,4.112,2.539,5.673-1.344l-6.909-4.328h-7.64l-3.877-6.07
				l-11.703-44.025L238.585,131.957z"/>
			<g>
				<path fill="#EFD4C2" d="M267.578,164.969c0.642-0.346,1.295-0.693,2.009-0.832c1.927-0.373,3.868,0.91,4.881,2.59
					s1.3,3.686,1.566,5.629c0.294,2.152,0.563,4.465-0.441,6.389s-3.838,3.012-5.407,1.512c-0.343-0.326-0.604-0.75-1.015-0.986
					c-1.326-0.76-2.672,0.859-3.93,1.729c-1.605,1.109-3.81,1.004-5.602,0.229C245.666,175.188,261.022,168.488,267.578,164.969z"/>
				<path fill="#EFD4C2" d="M252.674,109.914c6.197,24.592,7.407,40.789,9.512,66.063c0.048,0.576,0.094,1.164-0.044,1.727
					c-0.562,2.283-3.921,2.754-5.812,1.354c-1.89-1.4-2.644-3.832-3.284-6.096c-6.259-22.117-9.36-35.381-15.431-57.549
					c-0.926-3.382-1.852-6.764-2.778-10.146c-1.524-5.569,0.619-10.937,7.034-9.369C248.372,97.483,251.228,104.174,252.674,109.914
					z"/>
				<path fill="#E0492B" d="M238.585,131.957c0,0,10.632-10.76,20.396-6.307c0,0-3.668-27.781-14.391-30.031
					c0,0-15.662-0.766-11.894,14.262L238.585,131.957z"/>
				<path opacity="0.5" fill="#AD9586" d="M241.417,129.547c0,0,6.783-6.201,14.612-4.802l0.264,1.342c0,0-11.985,1.697-14.7,4.124
					L241.417,129.547z"/>
			</g>
			<g>
				<g>
					<path fill="#EFD4C2" d="M252,61.654c2.501,11.093,0.977,23.313-5.703,32.473c-11.769,16.137-39.753,25.642-58.88,20.207
						c-10.851-3.084-19.577-11.488-25.353-21.178s-8.958-20.67-11.927-31.553c-2.785-10.217-5.433-21.099-2.398-31.245
						c4.937-16.515,24.233-25.56,41.352-23.549c26.249,3.083,55.193,27.04,62.331,52.554C251.633,60.121,251.826,60.885,252,61.654z
						"/>
					<g>
						<path fill="#FFFFFF" d="M194.502,68.313c3.408,3.797,10.543,3.681,13.542-0.775c3.858-5.733-7.519-19.658-13.98-14.453
							c-4.252,3.425-2.809,11.201,0.181,14.926C194.328,68.113,194.414,68.215,194.502,68.313z"/>
						<g>
							
								<ellipse transform="matrix(0.9349 -0.3549 0.3549 0.9349 -10.2112 76.4631)" fill="#3D3430" cx="203.349" cy="66.069" rx="2.567" ry="3.83"/>
							
								<ellipse transform="matrix(0.9348 -0.3551 0.3551 0.9348 -10.7239 76.5995)" fill="#FFFFFF" cx="203.306" cy="67.513" rx="1.096" ry="1.634"/>
						</g>
						<path fill="#FFFFFF" d="M221.535,56.933c3.408,3.797,10.543,3.681,13.542-0.776c3.858-5.732-7.519-19.656-13.98-14.453
							c-4.252,3.426-2.809,11.201,0.181,14.926C221.36,56.732,221.446,56.834,221.535,56.933z"/>
						<g>
							
								<ellipse transform="matrix(0.9349 -0.3549 0.3549 0.9349 -4.4134 85.3154)" fill="#3D3430" cx="230.381" cy="54.689" rx="2.567" ry="3.83"/>
							
								<ellipse transform="matrix(0.935 -0.3547 0.3547 0.935 -4.9326 85.3595)" fill="#FFFFFF" cx="230.338" cy="56.133" rx="1.096" ry="1.635"/>
						</g>
						<path fill="#AD9586" d="M231.544,62.518c0.283-0.029,0.6-0.053,0.824,0.123c0.22,0.171,0.275,0.477,0.3,0.754
							c0.192,2.162-0.615,4.392-2.148,5.928c-1.532,1.537-3.76,2.352-5.922,2.164c-0.888-0.076-1.784-0.325-2.486-0.874
							c-0.565-0.442-0.975-1.056-1.305-1.692c-1.06-2.051-3.413-7.493,0.388-7.957c1.379-0.169,3.536,1.213,4.988,1.448
							C227.949,62.697,229.768,62.699,231.544,62.518z"/>
						<g>
							<path fill="#917C70" d="M204.948,82.479c0,0,0.062,0.037,0.176,0.105c0.094,0.06,0.293,0.156,0.525,0.267
								c0.243,0.107,0.542,0.233,0.901,0.352c0.354,0.127,0.771,0.236,1.227,0.347c0.46,0.099,0.962,0.199,1.504,0.255
								c0.537,0.091,1.116,0.083,1.713,0.126c0.597-0.019,1.22,0,1.849-0.065c0.628-0.069,1.273-0.104,1.906-0.239
								c0.637-0.108,1.275-0.215,1.89-0.392c0.618-0.159,1.234-0.298,1.808-0.509c0.576-0.199,1.146-0.364,1.667-0.57
								c0.52-0.213,1.011-0.415,1.464-0.602c0.914-0.358,1.625-0.771,2.147-1.007c0.516-0.253,0.811-0.397,0.811-0.397
								s-0.283,0.165-0.779,0.453c-0.505,0.272-1.189,0.736-2.08,1.161c-0.442,0.22-0.922,0.458-1.43,0.709
								c-0.511,0.245-1.072,0.452-1.643,0.695c-0.566,0.255-1.181,0.44-1.8,0.647c-0.615,0.224-1.261,0.38-1.908,0.539
								c-0.642,0.184-1.305,0.269-1.954,0.386c-0.649,0.113-1.302,0.143-1.93,0.204c-0.632,0.002-1.245,0.051-1.827-0.004
								c-0.584-0.019-1.134-0.088-1.643-0.161c-0.506-0.085-0.972-0.173-1.379-0.286c-0.409-0.104-0.763-0.223-1.053-0.328
								c-0.295-0.114-0.509-0.199-0.685-0.289c-0.154-0.078-0.237-0.121-0.237-0.121L204.948,82.479z"/>
						</g>
						<g>
							<path fill="#917C70" d="M206.595,80.936c0,0-0.317,0.227-0.729,0.643c-0.411,0.41-0.916,1.02-1.207,1.734
								c-0.164,0.346-0.28,0.715-0.334,1.07c-0.06,0.354-0.078,0.694-0.044,0.98c0.012,0.291,0.053,0.529,0.091,0.695
								c0.031,0.168,0.05,0.264,0.05,0.264l-0.143,0.045c0.025-0.008-0.546-0.242-0.904-0.924c-0.101-0.167-0.197-0.358-0.236-0.572
								c-0.055-0.212-0.129-0.447-0.11-0.687c0.002-0.239-0.021-0.501,0.054-0.743c0.051-0.252,0.132-0.493,0.222-0.732
								c0.104-0.235,0.254-0.436,0.38-0.646c0.131-0.204,0.321-0.364,0.482-0.521c0.339-0.307,0.718-0.512,1.07-0.623
								c0.694-0.246,1.279-0.107,1.279-0.107L206.595,80.936z"/>
						</g>
					</g>
					<path fill="#60483D" d="M232,27.75c0.935-1.041,1.606-2.291,2.269-3.527c0.389-0.727,0.778-1.453,1.167-2.18
						c0.315-0.588,0.631-1.178,0.902-1.787c1.237-2.779,1.72-6.535,0.735-9.444c-0.492-1.458-1.565-2.905-2.549-4.067
						c-0.744-0.879-2.846-2.012-3.277-2.94c1.319,2.842,1.881,6.042,1.607,9.172C228.943,6.521,222.438,1.746,215.179,0
						c2.763,2.367,4.236,6.199,3.785,9.843c-3.03-2.442-6.299-4.579-9.744-6.367c-0.16,0.927-0.319,1.854-0.479,2.782
						c-16.978-3.068-35.776-2.68-49.795,7.52c-12.21,8.883-19.011,24.873-17.01,39.996c0.319,2.408,0.866,4.85,2.17,6.887
						c0.475,0.742,1.051,1.434,1.355,2.263c0.467,1.272,0.232,2.683,0.074,4.03c-1.038,8.816,1.6,18.02,7.134,24.893
						s13.889,11.322,22.601,12.036c-2.735-3.832-4.511-8.311-5.294-12.945c-0.338-2.007-0.055-4.165-0.434-6.108
						c-0.416-2.14-1.48-3.716-1.324-6.038c0.051-0.749,0.305-1.64,1.03-1.835c0.481-0.129,0.973,0.113,1.437,0.295
						c1.699,0.662,3.689,0.525,5.282-0.362c-1.464-0.511-2.638-1.78-3.033-3.28c-0.962-3.645,2.922-8.184,3.347-11.904
						c0.287-2.517,0.008-5.097-0.813-7.49c-0.498-1.454-1.693-2.676-2.598-3.85c-0.916-1.191-2.098-3.889-3.404-4.613
						c5.494,3.047,11.33,1.401,16.999-0.205c5.906-1.672,11.564-4.101,17.454-5.828c5.172-1.518,10.299-3.205,15.301-5.217
						c3.98-1.602,9.66-3.4,12.673-6.635C231.929,27.828,231.964,27.789,232,27.75z"/>
					<path fill="#EFD4C2" d="M171.125,77.36c-2.288-0.618-4.612-1.241-6.982-1.207c-2.37,0.033-4.834,0.81-6.403,2.587
						c-0.646,0.732-1.118,1.605-1.48,2.514c-2.287,5.734,0.324,12.979,5.745,15.938c3.162,1.725,7.158,2.004,10.393,0.418
						s5.514-5.113,5.305-8.709"/>
					<g>
						<path fill="#917C70" d="M168.946,93.127c0,0-0.138,0.019-0.396,0.052c-0.254,0.044-0.647,0.058-1.145,0.044
							c-0.49-0.037-1.099-0.094-1.758-0.316c-0.658-0.215-1.395-0.529-2.085-1.059c-0.675-0.506-1.35-1.233-1.847-2.096
							c-0.506-0.864-0.847-1.898-0.935-3.008c0-0.271-0.001-0.547-0.001-0.822c0.062-0.316,0.09-0.595,0.202-0.953l0.155-0.372
							c0.066-0.133,0.168-0.282,0.254-0.423c0.191-0.268,0.384-0.503,0.619-0.703c0.453-0.418,0.978-0.736,1.525-0.977
							c0.281-0.127,0.538-0.227,0.858-0.318c0.278-0.069,0.509-0.165,0.827-0.211c0.619-0.123,1.232-0.176,1.854-0.116l0.468,0.06
							c0.103,0.021,0.1-0.004,0.289,0.056l0.197,0.063c0.269,0.095,0.502,0.126,0.826,0.321c0.299,0.166,0.625,0.32,0.848,0.553
							c0.242,0.22,0.504,0.418,0.67,0.715l0.273,0.417l0.066,0.104l0.017,0.027l0.036,0.089l0.018,0.046l0.07,0.187
							c0.045,0.131,0.096,0.23,0.136,0.386l0.101,0.506c0.014,0.107,0.027,0.116,0.038,0.305l0.001,0.193
							c-0.005,0.143,0.014,0.229-0.011,0.414c-0.036,0.354-0.099,0.695-0.238,1c-0.051,0.158-0.126,0.31-0.237,0.452l-0.153,0.214
							l-0.078,0.104l-0.04,0.051l-0.082,0.078l-0.018,0.014c-0.105,0.082-0.17,0.143-0.312,0.234
							c-0.172,0.098-0.362,0.199-0.534,0.257c-0.641,0.208-1.281,0.149-1.832-0.072c-0.272-0.12-0.533-0.266-0.744-0.475
							l-0.161-0.148l-0.048-0.054l-0.006-0.008l-0.012-0.017l-0.023-0.032l-0.047-0.065c-0.064-0.097-0.117-0.146-0.193-0.298
							c-0.314-0.543-0.346-1-0.335-1.469c0.013-0.457,0.146-0.874,0.327-1.228l0.146-0.256c0.116-0.164,0.128-0.147,0.195-0.229
							c0.108-0.115,0.212-0.228,0.313-0.335c0.25-0.205,0.552-0.362,0.779-0.501c0.505-0.17,0.885-0.285,1.167-0.265
							c0.268-0.01,0.412-0.015,0.412-0.015l0.008,0.148c0,0-0.129,0.042-0.373,0.122c-0.248,0.052-0.574,0.231-0.955,0.462
							c-0.152,0.162-0.318,0.286-0.49,0.48c-0.082,0.122-0.167,0.249-0.256,0.381c-0.027,0.045-0.125,0.18-0.098,0.152l-0.07,0.195
							c-0.195,0.504-0.095,1.26,0.204,1.676c0.007,0.039,0.11,0.139,0.173,0.213l0.053,0.059l0.027,0.03l0.014,0.015l0.006,0.008
							c-0.076-0.086-0.018-0.021-0.033-0.04l0.089,0.058c0.104,0.088,0.251,0.141,0.391,0.186c0.284,0.093,0.631,0.088,0.892-0.031
							c0.051-0.026,0.068-0.049,0.114-0.055c0.062-0.037,0.171-0.152,0.258-0.222l0.018-0.015l0.009-0.008
							c-0.027,0.025,0.072-0.066-0.058,0.055l0.013-0.024l0.027-0.048l0.059-0.09c0.05-0.052,0.083-0.122,0.102-0.208
							c0.07-0.155,0.084-0.313,0.108-0.47c0.021-0.068-0.001-0.24,0.001-0.355l-0.006-0.193c0,0.059-0.017-0.059-0.022-0.08
							c-0.015-0.088-0.022-0.177-0.029-0.268c-0.015-0.1-0.075-0.243-0.112-0.363l-0.063-0.188l-0.016-0.048l-0.004-0.012
							c0.011,0.026-0.029-0.074,0.023,0.055l-0.011-0.016l-0.042-0.063l-0.158-0.257c-0.21-0.34-0.563-0.655-0.889-0.854
							c-0.125-0.13-0.439-0.216-0.683-0.318l-0.192-0.075c0.061,0.01-0.084-0.016-0.115-0.021l-0.352-0.066
							c-0.475-0.079-0.982-0.064-1.456-0.007c-0.235,0.013-0.532,0.109-0.794,0.16c-0.215,0.049-0.484,0.134-0.71,0.226
							c-0.474,0.178-0.916,0.422-1.281,0.729c-0.191,0.14-0.353,0.33-0.485,0.491c-0.058,0.089-0.123,0.155-0.184,0.259
							l-0.175,0.363l-0.159,0.6c-0.014,0.252-0.027,0.502-0.04,0.75c0.024,0.973,0.292,1.906,0.691,2.718
							c0.409,0.819,0.936,1.481,1.556,2.021c0.603,0.53,1.271,0.872,1.881,1.116c0.61,0.254,1.187,0.347,1.657,0.414
							c0.472,0.045,0.845,0.059,1.106,0.031c0.261-0.016,0.399-0.023,0.399-0.023L168.946,93.127z"/>
					</g>
				</g>
				<g>
					<path fill="#60483D" d="M226.943,2.918c0,0,0.206,0.096,0.566,0.263c0.183,0.078,0.39,0.208,0.639,0.341
						c0.253,0.13,0.501,0.328,0.797,0.52c0.136,0.114,0.276,0.232,0.422,0.355c0.078,0.071,0.137,0.107,0.234,0.211l0.192,0.215
						c0.262,0.289,0.537,0.586,0.788,0.977c0.13,0.199,0.264,0.348,0.397,0.604c0.106,0.192,0.214,0.386,0.322,0.582
						c0.217,0.391,0.438,0.787,0.658,1.184c0.217,0.4,0.362,0.878,0.544,1.314c0.167,0.447,0.357,0.893,0.492,1.326
						c0.208,0.869,0.421,1.693,0.566,2.408c0.148,1.461,0.247,2.436,0.247,2.436l-2.963-0.182c0,0,0.087-0.832,0.218-2.081
						c-0.001-0.63-0.039-1.369-0.057-2.179c-0.038-0.392-0.122-0.781-0.182-1.194c-0.079-0.411-0.101-0.83-0.23-1.264
						c-0.136-0.434-0.271-0.867-0.403-1.294c-0.066-0.213-0.133-0.425-0.198-0.634c-0.033-0.147-0.144-0.357-0.211-0.532
						c-0.132-0.367-0.346-0.727-0.545-1.064l-0.145-0.249c-0.023-0.04-0.101-0.132-0.147-0.194
						c-0.108-0.139-0.214-0.273-0.314-0.402c-0.233-0.229-0.432-0.469-0.643-0.639c-0.209-0.173-0.381-0.34-0.545-0.453
						C227.125,3.054,226.943,2.918,226.943,2.918z"/>
				</g>
				<g>
					<path fill="#60483D" d="M228.505,28.686c0,0,0.315-0.146,0.866-0.398c0.548-0.255,1.316-0.617,2.222-1.091
						c0.437-0.253,0.936-0.5,1.412-0.823c0.498-0.299,0.979-0.664,1.481-1.042c0.472-0.408,0.959-0.835,1.385-1.333l0.167-0.18
						l0.042-0.046c-0.021,0.036,0.016-0.021,0.021-0.025l0.074-0.104l0.299-0.422c0.189-0.284,0.421-0.562,0.578-0.853
						c0.285-0.593,0.644-1.151,0.84-1.798c0.112-0.314,0.238-0.623,0.337-0.936c0.081-0.319,0.16-0.635,0.239-0.945
						c0.184-0.616,0.23-1.24,0.34-1.821c0.091-0.584,0.111-1.146,0.165-1.66c0.041-0.517,0.037-0.992,0.056-1.413
						c0.02-0.422,0.006-0.79,0.003-1.094c-0.01-0.605-0.015-0.953-0.015-0.953s0.028,0.346,0.078,0.951
						c0.023,0.303,0.062,0.67,0.07,1.094c0.01,0.422,0.046,0.9,0.04,1.422c-0.02,0.521-0.003,1.09-0.055,1.688
						c-0.07,0.597-0.078,1.236-0.223,1.881c-0.06,0.324-0.12,0.654-0.181,0.988c-0.081,0.33-0.189,0.659-0.284,0.994
						c-0.158,0.679-0.503,1.328-0.784,2c-0.153,0.327-0.354,0.6-0.528,0.901l-0.27,0.44l-0.067,0.11
						c-0.02,0.029-0.002,0.012-0.054,0.08l-0.041,0.052l-0.167,0.207c-0.428,0.572-0.919,1.066-1.401,1.541
						c-0.507,0.439-1.001,0.867-1.504,1.218c-0.487,0.378-0.983,0.667-1.428,0.966c-0.903,0.553-1.676,0.982-2.21,1.275
						c-0.533,0.289-0.838,0.455-0.838,0.455L228.505,28.686z"/>
				</g>
				<g>
					<path fill="#60483D" d="M231.145,26.84c0,0,0.27-0.216,0.74-0.594c0.23-0.189,0.537-0.413,0.818-0.688
						c0.291-0.276,0.637-0.569,0.986-0.925c0.332-0.371,0.72-0.756,1.082-1.198c0.32-0.458,0.761-0.93,1.036-1.442
						c0.163-0.279,0.327-0.564,0.494-0.852c0.178-0.287,0.336-0.579,0.441-0.879c0.225-0.607,0.551-1.187,0.688-1.853
						c0.169-0.649,0.386-1.295,0.44-1.96c0.096-0.659,0.203-1.31,0.179-1.947c0.011-0.637,0.038-1.256-0.059-1.836
						c-0.084-0.578-0.08-1.145-0.235-1.635c-0.122-0.5-0.234-0.957-0.333-1.363c-0.127-0.396-0.278-0.73-0.383-1.013
						c-0.22-0.562-0.346-0.883-0.346-0.883s0.147,0.312,0.404,0.857c0.123,0.275,0.299,0.602,0.453,0.993
						c0.128,0.403,0.272,0.857,0.43,1.354c0.19,0.49,0.227,1.061,0.352,1.646c0.138,0.588,0.153,1.22,0.187,1.875
						c0.067,0.658,0.004,1.334-0.049,2.023c-0.013,0.697-0.189,1.381-0.322,2.075c-0.097,0.7-0.401,1.366-0.611,2.044
						c-0.103,0.348-0.245,0.656-0.399,0.948c-0.147,0.298-0.293,0.593-0.436,0.883c-0.302,0.646-0.701,1.122-1.025,1.655
						c-0.354,0.498-0.736,0.934-1.066,1.355c-0.35,0.406-0.705,0.752-1.003,1.074c-0.302,0.331-0.575,0.559-0.796,0.767
						c-0.444,0.408-0.698,0.642-0.698,0.642L231.145,26.84z"/>
				</g>
				<g>
					<path fill="#60483D" d="M170.035,45.809c0,0,0.332,0.197,0.914,0.545c0.29,0.185,0.648,0.347,1.045,0.695
						c0.391,0.325,0.863,0.664,1.307,1.088c0.406,0.451,0.883,0.908,1.313,1.449c0.381,0.58,0.87,1.131,1.205,1.807
						c0.346,0.67,0.739,1.34,0.968,2.098c0.127,0.373,0.282,0.738,0.386,1.121l0.248,1.17l0.121,0.582l0.037,0.596
						c0.024,0.395,0.049,0.787,0.072,1.178c0.005,0.418-0.041,0.768-0.058,1.148c-0.077,0.393-0.139,0.759-0.244,1.154
						c-0.243,0.678-0.554,1.326-0.929,1.918c-0.375,0.551-0.729,1.07-1.055,1.551c-0.164,0.24-0.32,0.471-0.469,0.689
						c-0.16,0.211-0.342,0.392-0.496,0.571c-0.315,0.354-0.591,0.661-0.818,0.915c-0.451,0.506-0.709,0.795-0.709,0.795
						s0.24-0.305,0.66-0.835c0.209-0.265,0.464-0.585,0.756-0.954c0.141-0.186,0.309-0.371,0.453-0.59
						c0.136-0.229,0.278-0.467,0.427-0.717c0.298-0.498,0.62-1.039,0.96-1.61c0.158-0.267,0.282-0.587,0.43-0.886
						c0.136-0.311,0.229-0.664,0.348-1.004c0.056-0.31,0.102-0.678,0.15-1.019c-0.004-0.364,0.019-0.771-0.01-1.113
						c-0.045-0.368-0.091-0.74-0.137-1.113l-0.067-0.559l-0.149-0.545l-0.297-1.085c-0.119-0.354-0.288-0.689-0.427-1.029
						c-0.252-0.695-0.664-1.299-1.019-1.9c-0.344-0.609-0.836-1.09-1.211-1.602c-0.426-0.475-0.89-0.863-1.28-1.254
						c-0.417-0.352-0.834-0.607-1.179-0.872c-0.322-0.271-0.73-0.437-1.021-0.597c-0.602-0.313-0.945-0.49-0.945-0.49
						L170.035,45.809z"/>
				</g>
				<g>
					<path fill="#60483D" d="M171.642,45.188c0,0,0.278,0.201,0.765,0.555c0.245,0.188,0.534,0.361,0.871,0.584
						c0.328,0.229,0.732,0.443,1.165,0.69c0.434,0.243,0.924,0.464,1.442,0.692c0.528,0.203,1.087,0.416,1.688,0.55
						c0.295,0.093,0.604,0.139,0.916,0.179c0.313,0.045,0.63,0.108,0.952,0.096c0.31-0.004,0.674,0.033,0.948-0.002l1.021-0.135
						c0.355-0.023,0.642-0.153,0.96-0.234c0.308-0.105,0.631-0.148,0.929-0.303c0.604-0.264,1.21-0.51,1.748-0.852
						c0.563-0.298,1.066-0.653,1.548-0.988c0.493-0.319,0.908-0.692,1.318-1c0.409-0.313,0.754-0.635,1.075-0.902
						c0.32-0.27,0.591-0.515,0.813-0.717c0.447-0.402,0.702-0.633,0.702-0.633s-0.239,0.248-0.658,0.68
						c-0.209,0.217-0.462,0.479-0.764,0.771c-0.304,0.289-0.628,0.636-1.017,0.978c-0.393,0.337-0.785,0.74-1.263,1.098
						c-0.464,0.373-0.953,0.77-1.51,1.115c-0.529,0.387-1.14,0.688-1.756,1.006c-0.296,0.179-0.655,0.262-0.986,0.396
						c-0.338,0.111-0.685,0.275-1.019,0.317l-1.01,0.204c-0.401,0.074-0.725,0.052-1.089,0.082c-0.356,0.035-0.704-0.009-1.05-0.033
						c-0.348-0.022-0.691-0.052-1.018-0.129c-0.669-0.104-1.289-0.291-1.878-0.475c-0.576-0.207-1.122-0.412-1.604-0.639
						c-0.479-0.233-0.926-0.434-1.303-0.658c-0.378-0.215-0.726-0.398-0.97-0.561c-0.51-0.32-0.801-0.502-0.801-0.502
						L171.642,45.188z"/>
				</g>
				<g>
					<path fill="#60483D" d="M230.817,11.924c0,0-0.098-0.238-0.27-0.654c-0.086-0.207-0.189-0.46-0.31-0.75
						c-0.113-0.297-0.254-0.615-0.438-0.926c-0.174-0.323-0.363-0.674-0.563-1.045c-0.187-0.381-0.479-0.736-0.731-1.132
						c-0.267-0.387-0.521-0.806-0.854-1.172c-0.317-0.382-0.641-0.769-0.963-1.156c-0.361-0.354-0.722-0.708-1.076-1.058
						c-0.343-0.366-0.74-0.654-1.109-0.957c-0.378-0.287-0.715-0.612-1.09-0.838c-0.368-0.238-0.716-0.464-1.037-0.672
						c-0.631-0.441-1.237-0.664-1.627-0.89c-0.4-0.204-0.63-0.321-0.63-0.321s0.238,0.096,0.655,0.263
						c0.407,0.188,1.041,0.36,1.714,0.745c0.344,0.182,0.716,0.377,1.109,0.585c0.403,0.196,0.771,0.491,1.184,0.751
						c0.403,0.272,0.84,0.533,1.223,0.875c0.397,0.326,0.802,0.658,1.206,0.989c0.37,0.37,0.741,0.741,1.105,1.105
						c0.382,0.353,0.687,0.761,1.002,1.141c0.303,0.392,0.638,0.733,0.88,1.126c0.254,0.387,0.494,0.752,0.717,1.088
						c0.236,0.338,0.408,0.652,0.545,0.93c0.145,0.277,0.271,0.52,0.375,0.719c0.209,0.398,0.328,0.627,0.328,0.627L230.817,11.924z
						"/>
				</g>
				<g>
					<path fill="#60483D" d="M214.643,1.65c0,0,0.495,0.58,1.238,1.451c0.186,0.217,0.387,0.453,0.6,0.702
						c0.195,0.267,0.401,0.548,0.615,0.839c0.214,0.295,0.436,0.6,0.66,0.909c0.218,0.302,0.475,0.643,0.672,0.96
						c0.419,0.627,0.832,1.369,1.154,2.057c0.318,0.709,0.578,1.418,0.702,2.079c0.085,0.323,0.11,0.638,0.138,0.918
						c0.037,0.279,0.044,0.527,0.029,0.735c-0.016,0.418-0.025,0.656-0.025,0.656l-2.908-0.592c0,0,0.04-0.137,0.11-0.377
						c0.046-0.119,0.081-0.271,0.101-0.454c0.026-0.181,0.071-0.388,0.064-0.628c0.035-0.472-0.023-1.059-0.138-1.701
						c-0.133-0.655-0.301-1.314-0.562-2.042c-0.12-0.371-0.257-0.679-0.396-1.03c-0.138-0.342-0.273-0.678-0.404-1.004
						c-0.135-0.327-0.264-0.645-0.387-0.945c-0.146-0.293-0.285-0.57-0.412-0.826C214.984,2.333,214.643,1.65,214.643,1.65z"/>
				</g>
				<g>
					<path fill="#60483D" d="M212.294,3.059c0,0,0.614,0.455,1.514,1.172c0.224,0.182,0.466,0.379,0.722,0.587
						c0.262,0.203,0.506,0.454,0.777,0.695c0.265,0.248,0.554,0.49,0.801,0.785c0.259,0.286,0.522,0.576,0.785,0.866
						c0.244,0.33,0.471,0.6,0.688,0.952c0.229,0.331,0.404,0.675,0.587,1.005c0.156,0.344,0.324,0.672,0.435,1.006
						c0.117,0.33,0.226,0.646,0.287,0.952c0.081,0.3,0.128,0.583,0.153,0.839c0.036,0.253,0.061,0.477,0.055,0.662
						c0.005,0.373,0.007,0.586,0.007,0.586l-1.477-0.15c0,0,0.019-0.168,0.05-0.463c0.025-0.148,0.026-0.33,0.021-0.541
						c0.006-0.21-0.003-0.449-0.042-0.709c-0.018-0.264-0.079-0.545-0.146-0.844c-0.059-0.301-0.173-0.608-0.273-0.932
						c-0.128-0.314-0.25-0.65-0.414-0.961c-0.137-0.312-0.359-0.661-0.534-0.97c-0.215-0.306-0.431-0.61-0.643-0.909
						c-0.201-0.312-0.452-0.578-0.68-0.85c-0.234-0.266-0.442-0.541-0.675-0.771c-0.227-0.234-0.441-0.458-0.639-0.664
						C212.85,3.586,212.294,3.059,212.294,3.059z"/>
				</g>
				<g>
					<path fill="#60483D" d="M147.126,71.549c0,0-0.04,0.269-0.112,0.738c-0.035,0.234-0.079,0.52-0.129,0.847
						c-0.064,0.332-0.088,0.688-0.099,1.073c-0.021,0.391-0.041,0.813-0.063,1.258c-0.014,0.451,0.024,0.937,0.035,1.435
						c0.014,0.5,0.029,1.018,0.1,1.54c0.058,0.525,0.115,1.059,0.174,1.592c0.189,1.057,0.334,2.127,0.586,3.107
						c0.208,0.992,0.469,1.901,0.696,2.682c0.206,0.787,0.458,1.416,0.601,1.869c0.152,0.449,0.239,0.707,0.239,0.707
						s-0.108-0.248-0.299-0.684c-0.181-0.439-0.487-1.049-0.761-1.818c-0.295-0.761-0.635-1.652-0.93-2.633
						c-0.339-0.968-0.578-2.035-0.863-3.095c-0.105-0.539-0.211-1.077-0.315-1.608c-0.118-0.529-0.181-1.06-0.239-1.574
						c-0.055-0.516-0.136-1.008-0.163-1.49c-0.017-0.485-0.032-0.944-0.046-1.369c-0.021-0.428-0.025-0.816,0.009-1.141
						c0.022-0.33,0.041-0.617,0.056-0.854c0.031-0.475,0.049-0.746,0.049-0.746L147.126,71.549z"/>
				</g>
				<path fill="none" stroke="#44332C" stroke-width="1.4841" stroke-linecap="round" stroke-miterlimit="10" d="M188.109,50.104
					c0,0-0.495-11.397,8.657-4.226"/>
				<path fill="none" stroke="#44332C" stroke-width="1.4841" stroke-linecap="round" stroke-miterlimit="10" d="M215.586,37.964
					c0,0-0.386-12.367,8.948-3.216"/>
				<g>
					<path fill="#7F6257" d="M231.37,18.422c0,0-0.742,0.737-2.078,1.98c-0.676,0.613-1.478,1.376-2.43,2.219
						c-1,0.794-2.137,1.692-3.417,2.627c-1.245,0.997-2.721,1.85-4.243,2.834c-0.769,0.479-1.543,1-2.365,1.479
						c-0.832,0.461-1.715,0.871-2.596,1.32c-0.887,0.44-1.788,0.888-2.7,1.34c-0.942,0.387-1.896,0.778-2.857,1.173
						c-0.965,0.387-1.927,0.81-2.914,1.173c-1.001,0.325-2.007,0.652-3.012,0.979c-1.019,0.283-2.018,0.635-3.047,0.859
						c-1.028,0.223-2.054,0.443-3.07,0.664c-1.021,0.197-2.016,0.484-3.03,0.6c-1.009,0.139-2.006,0.276-2.987,0.41
						c-0.988,0.117-1.925,0.311-2.906,0.345c-0.94,0.045-1.845,0.11-2.777,0.104c-0.92,0.02-1.812,0.018-2.67-0.035
						c-0.429-0.02-0.851-0.039-1.264-0.057c-0.414-0.044-0.819-0.086-1.217-0.128c-0.396-0.043-0.785-0.085-1.164-0.126
						c-0.377-0.068-0.746-0.131-1.103-0.209c-0.715-0.141-1.389-0.281-2.007-0.49c-0.619-0.197-1.209-0.334-1.729-0.546
						c-0.518-0.212-0.992-0.407-1.421-0.583c-0.435-0.157-0.795-0.363-1.104-0.549c-0.31-0.18-0.574-0.332-0.788-0.455
						c-0.424-0.246-0.65-0.377-0.65-0.377l0.07-0.131c0,0,0.234,0.109,0.676,0.312c0.451,0.179,1.066,0.556,1.934,0.825
						c0.43,0.143,0.906,0.301,1.425,0.474c0.519,0.171,1.106,0.265,1.719,0.415c0.611,0.162,1.278,0.253,1.981,0.342
						c0.351,0.049,0.711,0.098,1.079,0.148c0.371,0.023,0.752,0.049,1.14,0.073s0.784,0.049,1.188,0.074
						c0.404,0.001,0.816,0.001,1.236,0.002c0.839,0.017,1.705-0.02,2.595-0.076c1.782-0.082,3.656-0.308,5.574-0.626
						c0.963-0.148,1.94-0.298,2.931-0.449c0.995-0.129,1.969-0.43,2.969-0.639c0.995-0.23,1.999-0.464,3.006-0.697
						c1.007-0.236,1.983-0.6,2.979-0.893c0.992-0.307,1.984-0.611,2.973-0.916c0.975-0.342,1.925-0.743,2.879-1.107
						c0.952-0.373,1.896-0.743,2.829-1.108c0.904-0.431,1.798-0.856,2.676-1.276c0.878-0.421,1.741-0.836,2.586-1.241
						c0.829-0.435,1.611-0.915,2.389-1.354c1.539-0.903,3.04-1.685,4.298-2.607c1.287-0.876,2.468-1.679,3.515-2.39
						c1.005-0.771,1.858-1.475,2.572-2.037c1.423-1.135,2.235-1.784,2.235-1.784L231.37,18.422z"/>
				</g>
				<g>
					<path fill="#7F6257" d="M171.287,31.756c0,0,0.711,0.084,1.955,0.232c0.621,0.078,1.377,0.172,2.246,0.204
						c0.869,0.03,1.846,0.153,2.919,0.124c1.07-0.019,2.233,0.043,3.457-0.065c0.613-0.037,1.242-0.075,1.886-0.114
						c0.643-0.045,1.294-0.146,1.959-0.219c1.334-0.127,2.691-0.399,4.074-0.647c0.696-0.104,1.376-0.313,2.069-0.47
						c0.687-0.181,1.393-0.306,2.069-0.534c1.37-0.411,2.736-0.796,4.048-1.321c0.66-0.244,1.315-0.486,1.963-0.727
						c0.642-0.253,1.261-0.535,1.877-0.796c1.233-0.521,2.421-1.034,3.521-1.585c1.093-0.553,2.112-1.109,2.993-1.713
						c0.893-0.586,1.647-1.217,2.265-1.82c0.295-0.316,0.571-0.613,0.827-0.887c0.215-0.306,0.413-0.587,0.592-0.841
						c0.089-0.128,0.173-0.247,0.253-0.36c0.06-0.125,0.115-0.242,0.168-0.35c0.104-0.218,0.193-0.402,0.266-0.553
						c0.145-0.299,0.222-0.459,0.222-0.459l0.139,0.052c0,0-0.056,0.173-0.161,0.495c-0.054,0.165-0.12,0.367-0.198,0.605
						c-0.04,0.12-0.083,0.25-0.13,0.388c-0.07,0.125-0.145,0.259-0.223,0.399c-0.162,0.283-0.341,0.599-0.535,0.941
						c-0.239,0.313-0.498,0.651-0.774,1.014c-0.582,0.699-1.314,1.447-2.217,2.103c-0.885,0.688-1.899,1.328-3.006,1.974
						c-1.071,0.621-2.255,1.242-3.505,1.803c-0.62,0.286-1.253,0.6-1.894,0.877c-0.638,0.264-1.285,0.527-1.944,0.775l-0.989,0.383
						l-0.497,0.191l-0.56,0.178c-0.697,0.221-1.396,0.44-2.097,0.661c-0.698,0.228-1.425,0.346-2.134,0.522
						c-0.714,0.15-1.414,0.355-2.13,0.453c-1.422,0.251-2.827,0.451-4.197,0.545c-0.685,0.045-1.352,0.146-2.014,0.143
						c-0.659-0.002-1.305-0.003-1.934-0.004c-1.253,0.029-2.437-0.105-3.524-0.155c-1.087-0.024-2.089-0.252-2.962-0.376
						c-0.881-0.124-1.623-0.295-2.236-0.438c-1.227-0.283-1.924-0.481-1.924-0.481L171.287,31.756z"/>
				</g>
				<g>
					<path fill="#7F6257" d="M171.814,33.43c0,0,0.502,0.063,1.359,0.231c0.426,0.101,0.947,0.181,1.535,0.257
						c0.586,0.088,1.244,0.168,1.969,0.251c0.719,0.101,1.502,0.15,2.322,0.226c0.819,0.086,1.692,0.065,2.581,0.131
						c0.896,0.006,1.815,0.002,2.75-0.03c0.937,0.003,1.881-0.109,2.827-0.177c0.941-0.109,1.891-0.18,2.809-0.358
						c0.926-0.14,1.829-0.313,2.708-0.487c0.859-0.232,1.723-0.374,2.51-0.615c0.791-0.229,1.553-0.423,2.238-0.658
						c0.693-0.217,1.331-0.423,1.894-0.623c0.568-0.189,1.063-0.365,1.455-0.541c0.394-0.172,0.727-0.273,0.945-0.357
						c0.222-0.08,0.34-0.123,0.34-0.123l0.08,0.125c0,0-0.424,0.254-1.165,0.701c-0.365,0.233-0.829,0.48-1.366,0.754
						c-0.531,0.287-1.139,0.593-1.823,0.881c-0.671,0.318-1.422,0.605-2.222,0.898c-0.792,0.313-1.661,0.542-2.547,0.816
						c-0.902,0.22-1.828,0.477-2.791,0.632c-0.955,0.204-1.942,0.3-2.925,0.433c-0.989,0.056-1.977,0.147-2.953,0.127
						c-0.975,0.028-1.933-0.049-2.859-0.094c-0.922-0.104-1.819-0.166-2.656-0.322c-0.84-0.137-1.632-0.277-2.351-0.463
						c-0.727-0.154-1.382-0.34-1.958-0.522c-0.581-0.167-1.083-0.323-1.483-0.483c-0.811-0.298-1.273-0.468-1.273-0.468
						L171.814,33.43z"/>
				</g>
				<g>
					<path fill="#7F6257" d="M167.251,50.232c0,0,0.34,0.113,0.898,0.383c0.263,0.173,0.645,0.369,0.97,0.682
						c0.169,0.151,0.347,0.32,0.528,0.504c0.162,0.197,0.334,0.408,0.504,0.639c0.317,0.47,0.622,1.018,0.828,1.65
						c0.225,0.625,0.334,1.333,0.33,2.068v0.139v0.033l-0.008,0.08l-0.002,0.016l-0.011,0.061l-0.04,0.245l-0.081,0.495
						c-0.028,0.32-0.156,0.688-0.281,1.053c-0.228,0.754-0.543,1.375-0.843,2.031c-0.316,0.625-0.632,1.25-0.942,1.865
						c-0.286,0.613-0.598,1.193-0.788,1.792c-0.094,0.298-0.233,0.585-0.287,0.878c-0.063,0.293-0.125,0.58-0.184,0.858
						c-0.059,0.239-0.066,0.581-0.077,0.835c0.013,0.259,0.003,0.512,0.052,0.758c0.055,0.498,0.202,0.938,0.365,1.309
						c0.169,0.368,0.355,0.682,0.557,0.895c0.178,0.238,0.364,0.379,0.488,0.479c0.124,0.102,0.189,0.156,0.189,0.156l-0.076,0.127
						c0,0-0.074-0.049-0.214-0.141c-0.142-0.09-0.354-0.219-0.571-0.449c-0.238-0.208-0.475-0.519-0.699-0.896
						c-0.22-0.383-0.431-0.846-0.549-1.379c-0.08-0.262-0.105-0.556-0.148-0.857c-0.018-0.306-0.045-0.553-0.013-0.903
						c0.058-0.624,0.142-1.286,0.347-1.931c0.156-0.662,0.438-1.304,0.679-1.953c0.259-0.632,0.521-1.274,0.784-1.916
						c0.221-0.635,0.479-1.289,0.576-1.871c0.072-0.291,0.139-0.576,0.16-0.93l0.052-0.498l0.025-0.247l0.007-0.062l0.001-0.016
						l0.001-0.008c0.002-0.016-0.01,0.117-0.006,0.058l-0.002-0.026l-0.007-0.107c0.021-1.142-0.255-2.218-0.641-3.096
						c-0.112-0.211-0.212-0.42-0.308-0.623c-0.119-0.187-0.234-0.365-0.341-0.531c-0.208-0.35-0.449-0.578-0.619-0.832
						c-0.436-0.432-0.687-0.691-0.687-0.691L167.251,50.232z"/>
				</g>
				<g>
					<path fill="#7F6257" d="M166.068,53.443c0,0,0.048,0.07,0.139,0.201c0.1,0.123,0.216,0.328,0.34,0.623
						c0.236,0.57,0.391,1.475,0.204,2.523c-0.038,0.273-0.104,0.511-0.188,0.83c-0.1,0.256-0.204,0.52-0.311,0.791
						c-0.213,0.543-0.444,1.115-0.699,1.691c-0.127,0.289-0.255,0.584-0.385,0.883l-0.195,0.449l-0.117,0.438
						c-0.083,0.324-0.167,0.65-0.252,0.979c-0.097,0.33-0.057,0.628-0.096,0.939c-0.006,0.312-0.066,0.606-0.035,0.923
						c0.033,0.315,0.067,0.629,0.101,0.94l0.05,0.461l0.117,0.447c0.071,0.295,0.143,0.587,0.212,0.874
						c0.153,0.568,0.386,1.091,0.526,1.622c0.234,0.487,0.462,0.951,0.654,1.398c0.258,0.41,0.493,0.787,0.702,1.12
						c0.187,0.366,0.455,0.589,0.623,0.833c0.372,0.451,0.581,0.742,0.581,0.742l-0.086,0.121c0,0-0.308-0.15-0.838-0.471
						c-0.258-0.166-0.627-0.324-0.922-0.641c-0.31-0.3-0.682-0.633-1.043-1.038c-0.31-0.438-0.647-0.923-0.973-1.456
						c-0.246-0.567-0.537-1.168-0.717-1.824c-0.061-0.336-0.123-0.677-0.186-1.021l-0.088-0.52v-0.535
						c0-0.355,0.002-0.715,0.002-1.074s0.1-0.735,0.147-1.099c0.071-0.355,0.09-0.753,0.21-1.063
						c0.111-0.32,0.223-0.639,0.332-0.953c0.064-0.176,0.088-0.275,0.186-0.512l0.234-0.439c0.156-0.291,0.311-0.578,0.462-0.861
						c0.294-0.565,0.579-1.113,0.85-1.633c0.136-0.258,0.269-0.51,0.396-0.754c0.074-0.205,0.185-0.47,0.237-0.698
						c0.278-0.94,0.226-1.785,0.068-2.328c-0.077-0.267-0.165-0.479-0.254-0.616c-0.075-0.141-0.116-0.215-0.116-0.215
						L166.068,53.443z"/>
				</g>
				<g>
					<circle fill="#685A52" cx="191.714" cy="76.842" r="1.13"/>
					<circle fill="#685A52" cx="197.688" cy="75.174" r="1.13"/>
					<circle fill="#685A52" cx="195.427" cy="79.019" r="1.13"/>
					
						<ellipse transform="matrix(0.9733 -0.2293 0.2293 0.9733 -12.4197 46.8137)" opacity="0.5" fill="#C13A3A" cx="195.2" cy="76.841" rx="7.601" ry="4.08"/>
				</g>
				<g>
					<circle fill="#685A52" cx="243.384" cy="54.418" r="0.993"/>
					<circle fill="#685A52" cx="238.747" cy="57.279" r="0.993"/>
					<circle fill="#685A52" cx="242.576" cy="58.112" r="0.993"/>
					
						<ellipse transform="matrix(-0.8289 0.5594 -0.5594 -0.8289 473.0251 -31.3475)" opacity="0.5" fill="#C13A3A" cx="241.307" cy="56.667" rx="6.678" ry="3.585"/>
				</g>
				<path opacity="0.2" fill="#352D2C" d="M190.279,128.926c0,0,3.285,21.715,6.882,25.496l4.237-3.289l18.33,29.547l18.666,11.367
					l-13.369-22.889l-21.522-27.146L190.279,128.926z"/>
				<g>
					<path fill="#EFD4C2" d="M195.307,112.475c-3.141,2.779-4.115,7.401-3.484,11.547c0.63,4.146,2.629,7.942,4.651,11.615
						c11.935,21.678,22.823,33.391,38.386,52.629c1.66,2.053,3.949,4.309,6.51,3.672c1.969-0.49,3.157-2.635,3.218-4.662
						c0.061-2.025-0.748-3.967-1.543-5.832c-7.925-18.619-12.896-28.326-20.807-46.949c-2.366-5.57-3.207-12.763-6.868-17.602
						C211.024,111.148,201.49,106.936,195.307,112.475z"/>
					<path fill="#EFD4C2" d="M253.222,176.127c0.663-0.355,1.401-0.723,2.147-0.578c0.94,0.182,1.493,1.09,1.89,1.918
						c1.234,2.578,2.128,5.303,2.652,8.092c0.389,2.057,0.507,4.387-0.87,6.021c-1.377,1.633-4.743,1.633-5.364-0.373
						c1.191,3.848-14.893,4.088-17.119-1.15C233.651,183.213,248.375,178.725,253.222,176.127z"/>
				</g>
				<path opacity="0.5" fill="#AD9586" d="M224.16,138.979c0,0-15.513,5.095-19.598,10.167l-1.497-2.33
					C203.065,146.816,217.79,138.303,224.16,138.979z"/>
				<path opacity="0.2" fill="#352D2C" d="M208.512,107.674c-2.13-1.203-4.524-2.006-6.97-2.031
					c-1.138-0.013-2.275,0.143-3.375,0.432c-4.29,1.13-7.951,4.422-9.53,8.567c3.798,0.851,6.879,1.614,10.451,1.442
					c3.589-0.174,7.426-1.486,11.015-1.66c1.035-0.05,4.111,0.336,4.833-0.426c0.928-0.979-1.341-2.508-1.955-3.053
					C211.597,109.719,210.125,108.584,208.512,107.674z"/>
				<path fill="#E0492B" d="M189.835,126.098c0.461,4.215,1.842,8.268,3.213,12.281c1.474,4.313,2.953,8.638,4.913,12.754
					c2.242-3.012,5.745-4.77,9.117-6.42c6.06-2.968,12.436-6.006,19.178-5.762c-2.108-9.319-4.587-19.135-11.352-25.882
					c-1.698-1.694-3.635-3.15-5.733-4.313c-2.646-1.466-5.727-2.475-8.688-1.851C192.249,108.643,189.038,118.799,189.835,126.098z"
					/>
			</g>
		</g>
		<path fill="#C9C7B8" d="M285.166,204.684l-141.813-52.851c0,0-101.118,48.671-143.353,42.886c0,0,5.263,3.414,17.935,7.521
			l122.972-25.273L285.166,204.684z"/>
		<path fill="#EDEDDD" d="M140.907,181.242v-22.08l145.872,45.521c0,0,16.04,4.084,18.36,10.58l-38.291,1.018l-125.941-33.783"/>
		<path fill="#DBDAC8" d="M140.907,159.162L0,205.324c0,0,2.7,5.553,0,12.033l140.907-28.289
			C140.907,189.068,146.411,168.033,140.907,159.162z"/>
		
			<polygon fill="#703C25" stroke="#703C25" stroke-width="4.6285" stroke-linecap="round" stroke-linejoin="round" stroke-miterlimit="10" points="
			137.017,180.549 285.166,216.008 110.99,247.76 4.654,221.887 		"/>
		<path fill="#703C25" d="M305.139,220.15l-181.671,32.527c0,0-5.971,0.912-12.279-3.068l170.681-34.346l13.065,2.555
			L305.139,220.15z"/>
		<path fill="#A09D90" d="M289.082,215.264c0,0,16.064-7.283,27.622-4.986l-10.988,7.342l-16.634-1.904"/>
		
			<path fill="none" stroke="#703C25" stroke-width="4.6285" stroke-linecap="round" stroke-linejoin="round" stroke-miterlimit="10" d="
			M286.779,215.264c0,0,19.727,10.055,30.912-6.338"/>
		<g>
			<path fill="#C9C7B8" d="M148.526,168.006c0,0,2.144,0.609,5.896,1.678c3.747,1.082,9.121,2.559,15.531,4.459
				c12.829,3.773,29.934,8.807,47.038,13.84c17.058,5.189,34.114,10.381,46.907,14.273c6.4,1.936,11.702,3.654,15.428,4.807
				c3.722,1.168,5.849,1.836,5.849,1.836l-0.018,0.055l-136.647-40.893L148.526,168.006z"/>
		</g>
		<g>
			<path fill="#C9C7B8" d="M152.382,172.344c0,0,2.032,0.543,5.589,1.492c3.552,0.965,8.647,2.27,14.724,3.965
				c12.162,3.369,28.377,7.857,44.593,12.348c16.17,4.648,32.341,9.299,44.469,12.785c6.066,1.732,11.093,3.279,14.625,4.314
				c3.528,1.051,5.544,1.65,5.544,1.65l-0.016,0.055L152.367,172.4L152.382,172.344z"/>
		</g>
		<g>
			<path fill="#C9C7B8" d="M161.874,180.934c0,0,1.927,0.441,5.3,1.215c3.368,0.787,8.197,1.84,13.962,3.232
				c11.534,2.764,26.912,6.447,42.291,10.133c15.339,3.844,30.678,7.688,42.183,10.57c5.755,1.43,10.524,2.729,13.876,3.588
				c3.347,0.873,5.26,1.373,5.26,1.373l-0.014,0.057L161.86,180.99L161.874,180.934z"/>
		</g>
		<g>
			<path fill="#C9C7B8" d="M138.498,166.613c0,0-2.105,0.699-5.789,1.922c-3.689,1.207-8.936,3.004-15.273,5.033
				c-12.666,4.078-29.555,9.518-46.443,14.957c-16.938,5.281-33.876,10.563-46.58,14.525c-6.349,1.99-11.672,3.547-15.383,4.684
				c-3.716,1.123-5.839,1.764-5.839,1.764l-0.018-0.055l135.307-42.885L138.498,166.613z"/>
		</g>
		<g>
			<path fill="#5E3120" d="M113.357,248.594c0,0,2.617-0.6,7.197-1.652c4.59-1.002,11.128-2.525,19.007-4.191
				c7.879-1.662,17.057-3.674,26.917-5.699c4.932-1.008,10.025-2.049,15.203-3.107c5.182-1.039,10.444-2.094,15.708-3.148
				c5.269-1.029,10.537-2.057,15.724-3.07c5.189-0.992,10.298-1.969,15.241-2.914c9.887-1.885,19.141-3.514,27.06-4.977
				s14.546-2.539,19.172-3.359c4.636-0.77,7.284-1.211,7.284-1.211s-2.617,0.602-7.197,1.654c-4.59,1.002-11.127,2.529-19.007,4.193
				c-7.879,1.662-17.056,3.678-26.917,5.697c-4.931,1.008-10.025,2.051-15.202,3.107c-5.182,1.039-10.445,2.094-15.708,3.148
				c-5.27,1.027-10.538,2.057-15.724,3.068c-5.191,0.992-10.299,1.969-15.242,2.912c-9.888,1.883-19.141,3.516-27.059,4.979
				c-7.919,1.459-14.546,2.539-19.172,3.359C116.006,248.154,113.357,248.594,113.357,248.594z"/>
		</g>
		<polygon fill="#5E3120" points="136.817,182.553 119.052,187.467 153.961,184.604 		"/>
	</g>
</g>
<g id="DESIGNED_BY_FREEPIK">
</g>
</svg>
