<?xml version="1.0" encoding="utf-8"?>
<!-- Generator: Adobe Illustrator 24.1.3, SVG Export Plug-In . SVG Version: 6.00 Build 0)  -->
<svg version="1.1" id="Layer_1" xmlns="http://www.w3.org/2000/svg" xmlns:xlink="http://www.w3.org/1999/xlink" x="0px" y="0px"
	 viewBox="0 0 1570 76" style="enable-background:new 0 0 1570 76;" xml:space="preserve">
<style type="text/css">
	.st0{fill:#4DC0F8;stroke:#4DC0F8;stroke-miterlimit:10;}
	.st1{fill:#4DC0F8;stroke:#4DC0F8;}
</style>
<g id="Layer_3">
	<g id="Layer_4">
	</g>
	<g id="Layer_5">
		<g id="Layer_6">
		</g>
		<g>
			<path d="M177.3,47l-0.3-2.2h-0.1c-1,1.4-2.8,2.6-5.3,2.6c-3.5,0-5.3-2.5-5.3-5c0-4.2,3.7-6.5,10.5-6.5v-0.4c0-1.4-0.4-4-4-4
				c-1.6,0-3.3,0.5-4.5,1.3l-0.7-2.1c1.4-0.9,3.5-1.5,5.7-1.5c5.3,0,6.6,3.6,6.6,7.1v6.5c0,1.5,0.1,3,0.3,4.2H177.3z M176.8,38.1
				c-3.5-0.1-7.4,0.5-7.4,3.9c0,2.1,1.4,3,3,3c2.3,0,3.7-1.4,4.2-2.9c0.1-0.3,0.2-0.7,0.2-1V38.1z"/>
			<path class="st0" d="M184.9,47c0-0.7,0.1-2.5,0.1-4c0-1.2,0-7.7,0-7.7V21.5h3.1v10.9h0.1c1.1-1.9,3.1-3.2,5.9-3.2
				c4.3,0,7.4,3.6,7.3,8.9c0,6.2-3.9,9.3-7.8,9.3c-2.5,0-4.5-1-5.8-3.3h-0.1l-0.1,2.9H184.9z M188.1,40c0,0.4,0.1,0.8,0.1,1.2
				c0.6,2.2,2.4,3.7,4.8,3.7c3.3,0,5.3-2.7,5.3-6.7c0-3.5-1.8-6.5-5.2-6.5c-2.2,0-4.2,1.5-4.8,3.9c-0.1,0.4-0.2,0.8-0.2,1.3V40z"/>
			<path d="M220.5,21.5v21.1c0,1.5,0,3.3,0.1,4.5h-2.8l-0.1-3h-0.1c-1,1.9-3.1,3.4-5.9,3.4c-4.2,0-7.5-3.6-7.5-8.9
				c0-5.8,3.6-9.4,7.8-9.4c2.7,0,4.5,1.3,5.3,2.7h0.1V21.5H220.5z M217.4,36.7c0-0.4,0-0.9-0.1-1.3c-0.5-2-2.2-3.7-4.6-3.7
				c-3.3,0-5.2,2.9-5.2,6.7c0,3.5,1.7,6.4,5.1,6.4c2.1,0,4.1-1.4,4.6-3.8c0.1-0.4,0.1-0.9,0.1-1.4V36.7z"/>
			<path d="M229.3,24.7c0,1.1-0.8,1.9-2,1.9c-1.1,0-1.9-0.9-1.9-1.9c0-1.1,0.8-2,2-2C228.6,22.7,229.3,23.6,229.3,24.7z M225.8,47
				V29.6h3.2V47H225.8z"/>
			<path d="M249.2,29.6c-0.1,1.3-0.1,2.7-0.1,4.8v10.1c0,4-0.8,6.4-2.5,8c-1.7,1.6-4.1,2.1-6.3,2.1c-2.1,0-4.4-0.5-5.8-1.4l0.8-2.4
				c1.2,0.7,3,1.4,5.1,1.4c3.2,0,5.6-1.7,5.6-6.1V44h-0.1c-1,1.6-2.8,2.9-5.5,2.9c-4.3,0-7.4-3.7-7.4-8.5c0-5.9,3.9-9.3,7.8-9.3
				c3,0,4.7,1.6,5.4,3h0.1l0.1-2.6H249.2z M246,36.5c0-0.5,0-1-0.2-1.4c-0.6-1.8-2.1-3.3-4.4-3.3c-3,0-5.2,2.6-5.2,6.6
				c0,3.4,1.7,6.3,5.1,6.3c1.9,0,3.7-1.2,4.4-3.2c0.2-0.5,0.3-1.2,0.3-1.7V36.5z"/>
			<path d="M268.9,42.3c0,1.8,0,3.4,0.1,4.8h-2.8l-0.2-2.8H266c-0.8,1.4-2.7,3.2-5.8,3.2c-2.7,0-6-1.5-6-7.6V29.6h3.2v9.6
				c0,3.3,1,5.5,3.9,5.5c2.1,0,3.6-1.5,4.2-2.9c0.2-0.5,0.3-1,0.3-1.6V29.6h3.2V42.3z"/>
			<path d="M274.2,34.3c0-1.8,0-3.3-0.1-4.7h2.8l0.2,2.9h0.1c0.9-1.7,2.9-3.3,5.8-3.3c2.4,0,6.2,1.4,6.2,7.4V47h-3.2V37
				c0-2.8-1-5.1-4-5.1c-2.1,0-3.7,1.5-4.2,3.2c-0.1,0.4-0.2,0.9-0.2,1.5V47h-3.2V34.3z"/>
			<path d="M293.4,45.1c0-1.3,0.9-2.3,2.2-2.3c1.3,0,2.1,0.9,2.1,2.3c0,1.3-0.8,2.3-2.2,2.3C294.3,47.4,293.4,46.4,293.4,45.1z"/>
		</g>
	</g>
	<g id="Layer_7">
		<g id="Layer_8">
		</g>
		<g>
			<path d="M334.6,47l-0.3-2.2h-0.1c-1,1.4-2.8,2.6-5.3,2.6c-3.5,0-5.3-2.5-5.3-5c0-4.2,3.7-6.5,10.5-6.5v-0.4c0-1.4-0.4-4-4-4
				c-1.6,0-3.3,0.5-4.5,1.3l-0.7-2.1c1.4-0.9,3.5-1.5,5.7-1.5c5.3,0,6.6,3.6,6.6,7.1v6.5c0,1.5,0.1,3,0.3,4.2H334.6z M334.1,38.1
				c-3.5-0.1-7.4,0.5-7.4,3.9c0,2.1,1.4,3,3,3c2.3,0,3.7-1.4,4.2-2.9c0.1-0.3,0.2-0.7,0.2-1V38.1z"/>
			<path d="M342.2,47c0.1-1.2,0.1-3,0.1-4.5V21.5h3.1v10.9h0.1c1.1-1.9,3.1-3.2,5.9-3.2c4.3,0,7.4,3.6,7.3,8.9
				c0,6.2-3.9,9.3-7.8,9.3c-2.5,0-4.5-1-5.8-3.3H345l-0.1,2.9H342.2z M345.4,40c0,0.4,0.1,0.8,0.1,1.2c0.6,2.2,2.4,3.7,4.8,3.7
				c3.3,0,5.3-2.7,5.3-6.7c0-3.5-1.8-6.5-5.2-6.5c-2.2,0-4.2,1.5-4.8,3.9c-0.1,0.4-0.2,0.8-0.2,1.3V40z"/>
			<path class="st1" d="M377.8,21.5v21.1c0,1.5,0,3.3,0.1,4.5h-2.8l-0.1-3h-0.1c-1,1.9-3.1,3.4-5.9,3.4c-4.2,0-7.5-3.6-7.5-8.9
				c0-5.8,3.6-9.4,7.8-9.4c2.7,0,4.5,1.3,5.3,2.7h0.1V21.5H377.8z M374.7,36.7c0-0.4,0-0.9-0.1-1.3c-0.5-2-2.2-3.7-4.6-3.7
				c-3.3,0-5.2,2.9-5.2,6.7c0,3.5,1.7,6.4,5.1,6.4c2.1,0,4.1-1.4,4.6-3.8c0.1-0.4,0.1-0.9,0.1-1.4V36.7z"/>
			<path d="M386.6,24.7c0,1.1-0.8,1.9-2,1.9c-1.1,0-1.9-0.9-1.9-1.9c0-1.1,0.8-2,2-2C385.9,22.7,386.6,23.6,386.6,24.7z M383.1,47
				V29.6h3.2V47H383.1z"/>
			<path d="M406.5,29.6c-0.1,1.3-0.1,2.7-0.1,4.8v10.1c0,4-0.8,6.4-2.5,8c-1.7,1.6-4.1,2.1-6.3,2.1c-2.1,0-4.4-0.5-5.8-1.4l0.8-2.4
				c1.2,0.7,3,1.4,5.1,1.4c3.2,0,5.6-1.7,5.6-6.1V44h-0.1c-1,1.6-2.8,2.9-5.5,2.9c-4.3,0-7.4-3.7-7.4-8.5c0-5.9,3.9-9.3,7.8-9.3
				c3,0,4.7,1.6,5.4,3h0.1l0.1-2.6H406.5z M403.2,36.5c0-0.5,0-1-0.2-1.4c-0.6-1.8-2.1-3.3-4.4-3.3c-3,0-5.2,2.6-5.2,6.6
				c0,3.4,1.7,6.3,5.1,6.3c1.9,0,3.7-1.2,4.4-3.2c0.2-0.5,0.3-1.2,0.3-1.7V36.5z"/>
			<path d="M426.2,42.3c0,1.8,0,3.4,0.1,4.8h-2.8l-0.2-2.8h-0.1c-0.8,1.4-2.7,3.2-5.8,3.2c-2.7,0-6-1.5-6-7.6V29.6h3.2v9.6
				c0,3.3,1,5.5,3.9,5.5c2.1,0,3.6-1.5,4.2-2.9c0.2-0.5,0.3-1,0.3-1.6V29.6h3.2V42.3z"/>
			<path d="M431.5,34.3c0-1.8,0-3.3-0.1-4.7h2.8l0.2,2.9h0.1c0.9-1.7,2.9-3.3,5.8-3.3c2.4,0,6.2,1.4,6.2,7.4V47h-3.2V37
				c0-2.8-1-5.1-4-5.1c-2.1,0-3.7,1.5-4.2,3.2c-0.1,0.4-0.2,0.9-0.2,1.5V47h-3.2V34.3z"/>
			<path d="M450.7,45.1c0-1.3,0.9-2.3,2.2-2.3c1.3,0,2.1,0.9,2.1,2.3c0,1.3-0.8,2.3-2.2,2.3C451.6,47.4,450.7,46.4,450.7,45.1z"/>
		</g>
	</g>
	<g id="Layer_9">
		<g id="Layer_10">
		</g>
		<g>
			<path d="M491.9,47l-0.3-2.2h-0.1c-1,1.4-2.8,2.6-5.3,2.6c-3.5,0-5.3-2.5-5.3-5c0-4.2,3.7-6.5,10.5-6.5v-0.4c0-1.4-0.4-4-4-4
				c-1.6,0-3.3,0.5-4.5,1.3l-0.7-2.1c1.4-0.9,3.5-1.5,5.7-1.5c5.3,0,6.6,3.6,6.6,7.1v6.5c0,1.5,0.1,3,0.3,4.2H491.9z M491.4,38.1
				c-3.5-0.1-7.4,0.5-7.4,3.9c0,2.1,1.4,3,3,3c2.3,0,3.7-1.4,4.2-2.9c0.1-0.3,0.2-0.7,0.2-1V38.1z"/>
			<path d="M499.4,47c0.1-1.2,0.1-3,0.1-4.5V21.5h3.1v10.9h0.1c1.1-1.9,3.1-3.2,5.9-3.2c4.3,0,7.4,3.6,7.3,8.9
				c0,6.2-3.9,9.3-7.8,9.3c-2.5,0-4.5-1-5.8-3.3h-0.1l-0.1,2.9H499.4z M502.7,40c0,0.4,0.1,0.8,0.1,1.2c0.6,2.2,2.4,3.7,4.8,3.7
				c3.3,0,5.3-2.7,5.3-6.7c0-3.5-1.8-6.5-5.2-6.5c-2.2,0-4.2,1.5-4.8,3.9c-0.1,0.4-0.2,0.8-0.2,1.3V40z"/>
			<path d="M535.1,21.5v21.1c0,1.5,0,3.3,0.1,4.5h-2.8l-0.1-3h-0.1c-1,1.9-3.1,3.4-5.9,3.4c-4.2,0-7.5-3.6-7.5-8.9
				c0-5.8,3.6-9.4,7.8-9.4c2.7,0,4.5,1.3,5.3,2.7h0.1V21.5H535.1z M531.9,36.7c0-0.4,0-0.9-0.1-1.3c-0.5-2-2.2-3.7-4.6-3.7
				c-3.3,0-5.2,2.9-5.2,6.7c0,3.5,1.7,6.4,5.1,6.4c2.1,0,4.1-1.4,4.6-3.8c0.1-0.4,0.1-0.9,0.1-1.4V36.7z"/>
			<path class="st1" d="M543.9,24.7c0,1.1-0.8,1.9-2,1.9c-1.1,0-1.9-0.9-1.9-1.9c0-1.1,0.8-2,2-2C543.1,22.7,543.9,23.6,543.9,24.7z
				 M540.4,47V29.6h3.2V47H540.4z"/>
			<path d="M563.8,29.6c-0.1,1.3-0.1,2.7-0.1,4.8v10.1c0,4-0.8,6.4-2.5,8c-1.7,1.6-4.1,2.1-6.3,2.1c-2.1,0-4.4-0.5-5.8-1.4l0.8-2.4
				c1.2,0.7,3,1.4,5.1,1.4c3.2,0,5.6-1.7,5.6-6.1V44h-0.1c-1,1.6-2.8,2.9-5.5,2.9c-4.3,0-7.4-3.7-7.4-8.5c0-5.9,3.9-9.3,7.8-9.3
				c3,0,4.7,1.6,5.4,3h0.1l0.1-2.6H563.8z M560.5,36.5c0-0.5,0-1-0.2-1.4c-0.6-1.8-2.1-3.3-4.4-3.3c-3,0-5.2,2.6-5.2,6.6
				c0,3.4,1.7,6.3,5.1,6.3c1.9,0,3.7-1.2,4.4-3.2c0.2-0.5,0.3-1.2,0.3-1.7V36.5z"/>
			<path d="M583.5,42.3c0,1.8,0,3.4,0.1,4.8h-2.8l-0.2-2.8h-0.1c-0.8,1.4-2.7,3.2-5.8,3.2c-2.7,0-6-1.5-6-7.6V29.6h3.2v9.6
				c0,3.3,1,5.5,3.9,5.5c2.1,0,3.6-1.5,4.2-2.9c0.2-0.5,0.3-1,0.3-1.6V29.6h3.2V42.3z"/>
			<path d="M588.8,34.3c0-1.8,0-3.3-0.1-4.7h2.8l0.2,2.9h0.1c0.9-1.7,2.9-3.3,5.8-3.3c2.4,0,6.2,1.4,6.2,7.4V47h-3.2V37
				c0-2.8-1-5.1-4-5.1c-2.1,0-3.7,1.5-4.2,3.2c-0.1,0.4-0.2,0.9-0.2,1.5V47h-3.2V34.3z"/>
			<path d="M608,45.1c0-1.3,0.9-2.3,2.2-2.3c1.3,0,2.1,0.9,2.1,2.3c0,1.3-0.8,2.3-2.2,2.3C608.8,47.4,608,46.4,608,45.1z"/>
		</g>
	</g>
	<g id="Layer_11">
		<g id="Layer_12">
		</g>
		<g>
			<path d="M649.2,47l-0.3-2.2h-0.1c-1,1.4-2.8,2.6-5.3,2.6c-3.5,0-5.3-2.5-5.3-5c0-4.2,3.7-6.5,10.5-6.5v-0.4c0-1.4-0.4-4-4-4
				c-1.6,0-3.3,0.5-4.5,1.3l-0.7-2.1c1.4-0.9,3.5-1.5,5.7-1.5c5.3,0,6.6,3.6,6.6,7.1v6.5c0,1.5,0.1,3,0.3,4.2H649.2z M648.7,38.1
				c-3.5-0.1-7.4,0.5-7.4,3.9c0,2.1,1.4,3,3,3c2.3,0,3.7-1.4,4.2-2.9c0.1-0.3,0.2-0.7,0.2-1V38.1z"/>
			<path d="M656.7,47c0.1-1.2,0.1-3,0.1-4.5V21.5h3.1v10.9h0.1c1.1-1.9,3.1-3.2,5.9-3.2c4.3,0,7.4,3.6,7.3,8.9
				c0,6.2-3.9,9.3-7.8,9.3c-2.5,0-4.5-1-5.8-3.3h-0.1l-0.1,2.9H656.7z M660,40c0,0.4,0.1,0.8,0.1,1.2c0.6,2.2,2.4,3.7,4.8,3.7
				c3.3,0,5.3-2.7,5.3-6.7c0-3.5-1.8-6.5-5.2-6.5c-2.2,0-4.2,1.5-4.8,3.9c-0.1,0.4-0.2,0.8-0.2,1.3V40z"/>
			<path d="M692.4,21.5v21.1c0,1.5,0,3.3,0.1,4.5h-2.8l-0.1-3h-0.1c-1,1.9-3.1,3.4-5.9,3.4c-4.2,0-7.5-3.6-7.5-8.9
				c0-5.8,3.6-9.4,7.8-9.4c2.7,0,4.5,1.3,5.3,2.7h0.1V21.5H692.4z M689.2,36.7c0-0.4,0-0.9-0.1-1.3c-0.5-2-2.2-3.7-4.6-3.7
				c-3.3,0-5.2,2.9-5.2,6.7c0,3.5,1.7,6.4,5.1,6.4c2.1,0,4.1-1.4,4.6-3.8c0.1-0.4,0.1-0.9,0.1-1.4V36.7z"/>
			<path d="M701.2,24.7c0,1.1-0.8,1.9-2,1.9c-1.1,0-1.9-0.9-1.9-1.9c0-1.1,0.8-2,2-2C700.4,22.7,701.2,23.6,701.2,24.7z M697.7,47
				V29.6h3.2V47H697.7z"/>
			<path class="st1" d="M721.1,29.6c-0.1,1.3-0.1,2.7-0.1,4.8v10.1c0,4-0.8,6.4-2.5,8c-1.7,1.6-4.1,2.1-6.3,2.1
				c-2.1,0-4.4-0.5-5.8-1.4l0.8-2.4c1.2,0.7,3,1.4,5.1,1.4c3.2,0,5.6-1.7,5.6-6.1V44h-0.1c-1,1.6-2.8,2.9-5.5,2.9
				c-4.3,0-7.4-3.7-7.4-8.5c0-5.9,3.9-9.3,7.8-9.3c3,0,4.7,1.6,5.4,3h0.1l0.1-2.6H721.1z M717.8,36.5c0-0.5,0-1-0.2-1.4
				c-0.6-1.8-2.1-3.3-4.4-3.3c-3,0-5.2,2.6-5.2,6.6c0,3.4,1.7,6.3,5.1,6.3c1.9,0,3.7-1.2,4.4-3.2c0.2-0.5,0.3-1.2,0.3-1.7V36.5z"/>
			<path d="M740.8,42.3c0,1.8,0,3.4,0.1,4.8h-2.8l-0.2-2.8h-0.1c-0.8,1.4-2.7,3.2-5.8,3.2c-2.7,0-6-1.5-6-7.6V29.6h3.2v9.6
				c0,3.3,1,5.5,3.9,5.5c2.1,0,3.6-1.5,4.2-2.9c0.2-0.5,0.3-1,0.3-1.6V29.6h3.2V42.3z"/>
			<path d="M746,34.3c0-1.8,0-3.3-0.1-4.7h2.8l0.2,2.9h0.1c0.9-1.7,2.9-3.3,5.8-3.3c2.4,0,6.2,1.4,6.2,7.4V47h-3.2V37
				c0-2.8-1-5.1-4-5.1c-2.1,0-3.7,1.5-4.2,3.2c-0.1,0.4-0.2,0.9-0.2,1.5V47H746V34.3z"/>
			<path d="M765.3,45.1c0-1.3,0.9-2.3,2.2-2.3c1.3,0,2.1,0.9,2.1,2.3c0,1.3-0.8,2.3-2.2,2.3C766.1,47.4,765.3,46.4,765.3,45.1z"/>
		</g>
	</g>
	<g id="Layer_13">
		<g id="Layer_14">
		</g>
		<g>
			<path d="M806.5,47l-0.3-2.2h-0.1c-1,1.4-2.8,2.6-5.3,2.6c-3.5,0-5.3-2.5-5.3-5c0-4.2,3.7-6.5,10.5-6.5v-0.4c0-1.4-0.4-4-4-4
				c-1.6,0-3.3,0.5-4.5,1.3l-0.7-2.1c1.4-0.9,3.5-1.5,5.7-1.5c5.3,0,6.6,3.6,6.6,7.1v6.5c0,1.5,0.1,3,0.3,4.2H806.5z M806,38.1
				c-3.5-0.1-7.4,0.5-7.4,3.9c0,2.1,1.4,3,3,3c2.3,0,3.7-1.4,4.2-2.9c0.1-0.3,0.2-0.7,0.2-1V38.1z"/>
			<path d="M814,47c0.1-1.2,0.1-3,0.1-4.5V21.5h3.1v10.9h0.1c1.1-1.9,3.1-3.2,5.9-3.2c4.3,0,7.4,3.6,7.3,8.9c0,6.2-3.9,9.3-7.8,9.3
				c-2.5,0-4.5-1-5.8-3.3h-0.1l-0.1,2.9H814z M817.3,40c0,0.4,0.1,0.8,0.1,1.2c0.6,2.2,2.4,3.7,4.8,3.7c3.3,0,5.3-2.7,5.3-6.7
				c0-3.5-1.8-6.5-5.2-6.5c-2.2,0-4.2,1.5-4.8,3.9c-0.1,0.4-0.2,0.8-0.2,1.3V40z"/>
			<path d="M849.7,21.5v21.1c0,1.5,0,3.3,0.1,4.5H847l-0.1-3h-0.1c-1,1.9-3.1,3.4-5.9,3.4c-4.2,0-7.5-3.6-7.5-8.9
				c0-5.8,3.6-9.4,7.8-9.4c2.7,0,4.5,1.3,5.3,2.7h0.1V21.5H849.7z M846.5,36.7c0-0.4,0-0.9-0.1-1.3c-0.5-2-2.2-3.7-4.6-3.7
				c-3.3,0-5.2,2.9-5.2,6.7c0,3.5,1.7,6.4,5.1,6.4c2.1,0,4.1-1.4,4.6-3.8c0.1-0.4,0.1-0.9,0.1-1.4V36.7z"/>
			<path d="M858.5,24.7c0,1.1-0.8,1.9-2,1.9c-1.1,0-1.9-0.9-1.9-1.9c0-1.1,0.8-2,2-2C857.7,22.7,858.5,23.6,858.5,24.7z M855,47
				V29.6h3.2V47H855z"/>
			<path class="st1" d="M878.4,29.6c-0.1,1.3-0.1,2.7-0.1,4.8v10.1c0,4-0.8,6.4-2.5,8c-1.7,1.6-4.1,2.1-6.3,2.1
				c-2.1,0-4.4-0.5-5.8-1.4l0.8-2.4c1.2,0.7,3,1.4,5.1,1.4c3.2,0,5.6-1.7,5.6-6.1V44h-0.1c-1,1.6-2.8,2.9-5.5,2.9
				c-4.3,0-7.4-3.7-7.4-8.5c0-5.9,3.9-9.3,7.8-9.3c3,0,4.7,1.6,5.4,3h0.1l0.1-2.6H878.4z M875.1,36.5c0-0.5,0-1-0.2-1.4
				c-0.6-1.8-2.1-3.3-4.4-3.3c-3,0-5.2,2.6-5.2,6.6c0,3.4,1.7,6.3,5.1,6.3c1.9,0,3.7-1.2,4.4-3.2c0.2-0.5,0.3-1.2,0.3-1.7V36.5z"/>
			<path d="M898.1,42.3c0,1.8,0,3.4,0.1,4.8h-2.8l-0.2-2.8h-0.1c-0.8,1.4-2.7,3.2-5.8,3.2c-2.7,0-6-1.5-6-7.6V29.6h3.2v9.6
				c0,3.3,1,5.5,3.9,5.5c2.1,0,3.6-1.5,4.2-2.9c0.2-0.5,0.3-1,0.3-1.6V29.6h3.2V42.3z"/>
			<path d="M903.3,34.3c0-1.8,0-3.3-0.1-4.7h2.8l0.2,2.9h0.1c0.9-1.7,2.9-3.3,5.8-3.3c2.4,0,6.2,1.4,6.2,7.4V47H915V37
				c0-2.8-1-5.1-4-5.1c-2.1,0-3.7,1.5-4.2,3.2c-0.1,0.4-0.2,0.9-0.2,1.5V47h-3.2V34.3z"/>
			<path d="M922.6,45.1c0-1.3,0.9-2.3,2.2-2.3c1.3,0,2.1,0.9,2.1,2.3c0,1.3-0.8,2.3-2.2,2.3C923.4,47.4,922.6,46.4,922.6,45.1z"/>
		</g>
	</g>
	<g id="Layer_15">
		<g id="Layer_16">
		</g>
		<g>
			<path d="M963.7,47l-0.3-2.2h-0.1c-1,1.4-2.8,2.6-5.3,2.6c-3.5,0-5.3-2.5-5.3-5c0-4.2,3.7-6.5,10.5-6.5v-0.4c0-1.4-0.4-4-4-4
				c-1.6,0-3.3,0.5-4.5,1.3l-0.7-2.1c1.4-0.9,3.5-1.5,5.7-1.5c5.3,0,6.6,3.6,6.6,7.1v6.5c0,1.5,0.1,3,0.3,4.2H963.7z M963.3,38.1
				c-3.5-0.1-7.4,0.5-7.4,3.9c0,2.1,1.4,3,3,3c2.3,0,3.7-1.4,4.2-2.9c0.1-0.3,0.2-0.7,0.2-1V38.1z"/>
			<path d="M971.3,47c0.1-1.2,0.1-3,0.1-4.5V21.5h3.1v10.9h0.1c1.1-1.9,3.1-3.2,5.9-3.2c4.3,0,7.4,3.6,7.3,8.9
				c0,6.2-3.9,9.3-7.8,9.3c-2.5,0-4.5-1-5.8-3.3h-0.1L974,47H971.3z M974.6,40c0,0.4,0.1,0.8,0.1,1.2c0.6,2.2,2.4,3.7,4.8,3.7
				c3.3,0,5.3-2.7,5.3-6.7c0-3.5-1.8-6.5-5.2-6.5c-2.2,0-4.2,1.5-4.8,3.9c-0.1,0.4-0.2,0.8-0.2,1.3V40z"/>
			<path d="M1007,21.5v21.1c0,1.5,0,3.3,0.1,4.5h-2.8l-0.1-3h-0.1c-1,1.9-3.1,3.4-5.9,3.4c-4.2,0-7.5-3.6-7.5-8.9
				c0-5.8,3.6-9.4,7.8-9.4c2.7,0,4.5,1.3,5.3,2.7h0.1V21.5H1007z M1003.8,36.7c0-0.4,0-0.9-0.1-1.3c-0.5-2-2.2-3.7-4.6-3.7
				c-3.3,0-5.2,2.9-5.2,6.7c0,3.5,1.7,6.4,5.1,6.4c2.1,0,4.1-1.4,4.6-3.8c0.1-0.4,0.1-0.9,0.1-1.4V36.7z"/>
			<path d="M1015.8,24.7c0,1.1-0.8,1.9-2,1.9c-1.1,0-1.9-0.9-1.9-1.9c0-1.1,0.8-2,2-2C1015,22.7,1015.8,23.6,1015.8,24.7z
				 M1012.2,47V29.6h3.2V47H1012.2z"/>
			<path d="M1035.7,29.6c-0.1,1.3-0.1,2.7-0.1,4.8v10.1c0,4-0.8,6.4-2.5,8c-1.7,1.6-4.1,2.1-6.3,2.1c-2.1,0-4.4-0.5-5.8-1.4l0.8-2.4
				c1.2,0.7,3,1.4,5.1,1.4c3.2,0,5.6-1.7,5.6-6.1V44h-0.1c-1,1.6-2.8,2.9-5.5,2.9c-4.3,0-7.4-3.7-7.4-8.5c0-5.9,3.9-9.3,7.8-9.3
				c3,0,4.7,1.6,5.4,3h0.1l0.1-2.6H1035.7z M1032.4,36.5c0-0.5,0-1-0.2-1.4c-0.6-1.8-2.1-3.3-4.4-3.3c-3,0-5.2,2.6-5.2,6.6
				c0,3.4,1.7,6.3,5.1,6.3c1.9,0,3.7-1.2,4.4-3.2c0.2-0.5,0.3-1.2,0.3-1.7V36.5z"/>
			<path class="st1" d="M1055.4,42.3c0,1.8,0,3.4,0.1,4.8h-2.8l-0.2-2.8h-0.1c-0.8,1.4-2.7,3.2-5.8,3.2c-2.7,0-6-1.5-6-7.6V29.6h3.2
				v9.6c0,3.3,1,5.5,3.9,5.5c2.1,0,3.6-1.5,4.2-2.9c0.2-0.5,0.3-1,0.3-1.6V29.6h3.2V42.3z"/>
			<path d="M1060.6,34.3c0-1.8,0-3.3-0.1-4.7h2.8l0.2,2.9h0.1c0.9-1.7,2.9-3.3,5.8-3.3c2.4,0,6.2,1.4,6.2,7.4V47h-3.2V37
				c0-2.8-1-5.1-4-5.1c-2.1,0-3.7,1.5-4.2,3.2c-0.1,0.4-0.2,0.9-0.2,1.5V47h-3.2V34.3z"/>
			<path d="M1079.8,45.1c0-1.3,0.9-2.3,2.2-2.3c1.3,0,2.1,0.9,2.1,2.3c0,1.3-0.8,2.3-2.2,2.3C1080.7,47.4,1079.8,46.4,1079.8,45.1z"
				/>
		</g>
	</g>
	<g id="Layer_17">
		<g id="Layer_18">
		</g>
		<g>
			<path d="M1121,47l-0.3-2.2h-0.1c-1,1.4-2.8,2.6-5.3,2.6c-3.5,0-5.3-2.5-5.3-5c0-4.2,3.7-6.5,10.5-6.5v-0.4c0-1.4-0.4-4-4-4
				c-1.6,0-3.3,0.5-4.5,1.3l-0.7-2.1c1.4-0.9,3.5-1.5,5.7-1.5c5.3,0,6.6,3.6,6.6,7.1v6.5c0,1.5,0.1,3,0.3,4.2H1121z M1120.6,38.1
				c-3.5-0.1-7.4,0.5-7.4,3.9c0,2.1,1.4,3,3,3c2.3,0,3.7-1.4,4.2-2.9c0.1-0.3,0.2-0.7,0.2-1V38.1z"/>
			<path d="M1128.6,47c0.1-1.2,0.1-3,0.1-4.5V21.5h3.1v10.9h0.1c1.1-1.9,3.1-3.2,5.9-3.2c4.3,0,7.4,3.6,7.3,8.9
				c0,6.2-3.9,9.3-7.8,9.3c-2.5,0-4.5-1-5.8-3.3h-0.1l-0.1,2.9H1128.6z M1131.9,40c0,0.4,0.1,0.8,0.1,1.2c0.6,2.2,2.4,3.7,4.8,3.7
				c3.3,0,5.3-2.7,5.3-6.7c0-3.5-1.8-6.5-5.2-6.5c-2.2,0-4.2,1.5-4.8,3.9c-0.1,0.4-0.2,0.8-0.2,1.3V40z"/>
			<path d="M1164.3,21.5v21.1c0,1.5,0,3.3,0.1,4.5h-2.8l-0.1-3h-0.1c-1,1.9-3.1,3.4-5.9,3.4c-4.2,0-7.5-3.6-7.5-8.9
				c0-5.8,3.6-9.4,7.8-9.4c2.7,0,4.5,1.3,5.3,2.7h0.1V21.5H1164.3z M1161.1,36.7c0-0.4,0-0.9-0.1-1.3c-0.5-2-2.2-3.7-4.6-3.7
				c-3.3,0-5.2,2.9-5.2,6.7c0,3.5,1.7,6.4,5.1,6.4c2.1,0,4.1-1.4,4.6-3.8c0.1-0.4,0.1-0.9,0.1-1.4V36.7z"/>
			<path d="M1173.1,24.7c0,1.1-0.8,1.9-2,1.9c-1.1,0-1.9-0.9-1.9-1.9c0-1.1,0.8-2,2-2C1172.3,22.7,1173.1,23.6,1173.1,24.7z
				 M1169.5,47V29.6h3.2V47H1169.5z"/>
			<path d="M1193,29.6c-0.1,1.3-0.1,2.7-0.1,4.8v10.1c0,4-0.8,6.4-2.5,8c-1.7,1.6-4.1,2.1-6.3,2.1c-2.1,0-4.4-0.5-5.8-1.4l0.8-2.4
				c1.2,0.7,3,1.4,5.1,1.4c3.2,0,5.6-1.7,5.6-6.1V44h-0.1c-1,1.6-2.8,2.9-5.5,2.9c-4.3,0-7.4-3.7-7.4-8.5c0-5.9,3.9-9.3,7.8-9.3
				c3,0,4.7,1.6,5.4,3h0.1l0.1-2.6H1193z M1189.7,36.5c0-0.5,0-1-0.2-1.4c-0.6-1.8-2.1-3.3-4.4-3.3c-3,0-5.2,2.6-5.2,6.6
				c0,3.4,1.7,6.3,5.1,6.3c1.9,0,3.7-1.2,4.4-3.2c0.2-0.5,0.3-1.2,0.3-1.7V36.5z"/>
			<path class="st1" d="M1212.7,42.3c0,1.8,0,3.4,0.1,4.8h-2.8l-0.2-2.8h-0.1c-0.8,1.4-2.7,3.2-5.8,3.2c-2.7,0-6-1.5-6-7.6V29.6h3.2
				v9.6c0,3.3,1,5.5,3.9,5.5c2.1,0,3.6-1.5,4.2-2.9c0.2-0.5,0.3-1,0.3-1.6V29.6h3.2V42.3z"/>
			<path d="M1217.9,34.3c0-1.8,0-3.3-0.1-4.7h2.8l0.2,2.9h0.1c0.9-1.7,2.9-3.3,5.8-3.3c2.4,0,6.2,1.4,6.2,7.4V47h-3.2V37
				c0-2.8-1-5.1-4-5.1c-2.1,0-3.7,1.5-4.2,3.2c-0.1,0.4-0.2,0.9-0.2,1.5V47h-3.2V34.3z"/>
			<path d="M1237.1,45.1c0-1.3,0.9-2.3,2.2-2.3c1.3,0,2.1,0.9,2.1,2.3c0,1.3-0.8,2.3-2.2,2.3C1238,47.4,1237.1,46.4,1237.1,45.1z"/>
		</g>
	</g>
	<g id="Layer_19">
		<g id="Layer_20">
		</g>
		<g>
			<path d="M1278.3,47l-0.3-2.2h-0.1c-1,1.4-2.8,2.6-5.3,2.6c-3.5,0-5.3-2.5-5.3-5c0-4.2,3.7-6.5,10.5-6.5v-0.4c0-1.4-0.4-4-4-4
				c-1.6,0-3.3,0.5-4.5,1.3l-0.7-2.1c1.4-0.9,3.5-1.5,5.7-1.5c5.3,0,6.6,3.6,6.6,7.1v6.5c0,1.5,0.1,3,0.3,4.2H1278.3z M1277.9,38.1
				c-3.5-0.1-7.4,0.5-7.4,3.9c0,2.1,1.4,3,3,3c2.3,0,3.7-1.4,4.2-2.9c0.1-0.3,0.2-0.7,0.2-1V38.1z"/>
			<path d="M1285.9,47c0.1-1.2,0.1-3,0.1-4.5V21.5h3.1v10.9h0.1c1.1-1.9,3.1-3.2,5.9-3.2c4.3,0,7.4,3.6,7.3,8.9
				c0,6.2-3.9,9.3-7.8,9.3c-2.5,0-4.5-1-5.8-3.3h-0.1l-0.1,2.9H1285.9z M1289.2,40c0,0.4,0.1,0.8,0.1,1.2c0.6,2.2,2.4,3.7,4.8,3.7
				c3.3,0,5.3-2.7,5.3-6.7c0-3.5-1.8-6.5-5.2-6.5c-2.2,0-4.2,1.5-4.8,3.9c-0.1,0.4-0.2,0.8-0.2,1.3V40z"/>
			<path d="M1321.6,21.5v21.1c0,1.5,0,3.3,0.1,4.5h-2.8l-0.1-3h-0.1c-1,1.9-3.1,3.4-5.9,3.4c-4.2,0-7.5-3.6-7.5-8.9
				c0-5.8,3.6-9.4,7.8-9.4c2.7,0,4.5,1.3,5.3,2.7h0.1V21.5H1321.6z M1318.4,36.7c0-0.4,0-0.9-0.1-1.3c-0.5-2-2.2-3.7-4.6-3.7
				c-3.3,0-5.2,2.9-5.2,6.7c0,3.5,1.7,6.4,5.1,6.4c2.1,0,4.1-1.4,4.6-3.8c0.1-0.4,0.1-0.9,0.1-1.4V36.7z"/>
			<path d="M1330.3,24.7c0,1.1-0.8,1.9-2,1.9c-1.1,0-1.9-0.9-1.9-1.9c0-1.1,0.8-2,2-2C1329.6,22.7,1330.3,23.6,1330.3,24.7z
				 M1326.8,47V29.6h3.2V47H1326.8z"/>
			<path d="M1350.3,29.6c-0.1,1.3-0.1,2.7-0.1,4.8v10.1c0,4-0.8,6.4-2.5,8c-1.7,1.6-4.1,2.1-6.3,2.1c-2.1,0-4.4-0.5-5.8-1.4l0.8-2.4
				c1.2,0.7,3,1.4,5.1,1.4c3.2,0,5.6-1.7,5.6-6.1V44h-0.1c-1,1.6-2.8,2.9-5.5,2.9c-4.3,0-7.4-3.7-7.4-8.5c0-5.9,3.9-9.3,7.8-9.3
				c3,0,4.7,1.6,5.4,3h0.1l0.1-2.6H1350.3z M1347,36.5c0-0.5,0-1-0.2-1.4c-0.6-1.8-2.1-3.3-4.4-3.3c-3,0-5.2,2.6-5.2,6.6
				c0,3.4,1.7,6.3,5.1,6.3c1.9,0,3.7-1.2,4.4-3.2c0.2-0.5,0.3-1.2,0.3-1.7V36.5z"/>
			<path d="M1369.9,42.3c0,1.8,0,3.4,0.1,4.8h-2.8l-0.2-2.8h-0.1c-0.8,1.4-2.7,3.2-5.8,3.2c-2.7,0-6-1.5-6-7.6V29.6h3.2v9.6
				c0,3.3,1,5.5,3.9,5.5c2.1,0,3.6-1.5,4.2-2.9c0.2-0.5,0.3-1,0.3-1.6V29.6h3.2V42.3z"/>
			<path class="st1" d="M1375.2,34.3c0-1.8,0-3.3-0.1-4.7h2.8l0.2,2.9h0.1c0.9-1.7,2.9-3.3,5.8-3.3c2.4,0,6.2,1.4,6.2,7.4V47h-3.2
				V37c0-2.8-1-5.1-4-5.1c-2.1,0-3.7,1.5-4.2,3.2c-0.1,0.4-0.2,0.9-0.2,1.5V47h-3.2V34.3z"/>
			<path d="M1394.4,45.1c0-1.3,0.9-2.3,2.2-2.3c1.3,0,2.1,0.9,2.1,2.3c0,1.3-0.8,2.3-2.2,2.3C1395.3,47.4,1394.4,46.4,1394.4,45.1z"
				/>
		</g>
	</g>
	<g id="Layer_21">
		<g id="Layer_22">
		</g>
		<g>
			<path d="M1435.6,47l-0.3-2.2h-0.1c-1,1.4-2.8,2.6-5.3,2.6c-3.5,0-5.3-2.5-5.3-5c0-4.2,3.7-6.5,10.5-6.5v-0.4c0-1.4-0.4-4-4-4
				c-1.6,0-3.3,0.5-4.5,1.3l-0.7-2.1c1.4-0.9,3.5-1.5,5.7-1.5c5.3,0,6.6,3.6,6.6,7.1v6.5c0,1.5,0.1,3,0.3,4.2H1435.6z M1435.1,38.1
				c-3.5-0.1-7.4,0.5-7.4,3.9c0,2.1,1.4,3,3,3c2.3,0,3.7-1.4,4.2-2.9c0.1-0.3,0.2-0.7,0.2-1V38.1z"/>
			<path d="M1443.2,47c0.1-1.2,0.1-3,0.1-4.5V21.5h3.1v10.9h0.1c1.1-1.9,3.1-3.2,5.9-3.2c4.3,0,7.4,3.6,7.3,8.9
				c0,6.2-3.9,9.3-7.8,9.3c-2.5,0-4.5-1-5.8-3.3h-0.1l-0.1,2.9H1443.2z M1446.5,40c0,0.4,0.1,0.8,0.1,1.2c0.6,2.2,2.4,3.7,4.8,3.7
				c3.3,0,5.3-2.7,5.3-6.7c0-3.5-1.8-6.5-5.2-6.5c-2.2,0-4.2,1.5-4.8,3.9c-0.1,0.4-0.2,0.8-0.2,1.3V40z"/>
			<path d="M1478.9,21.5v21.1c0,1.5,0,3.3,0.1,4.5h-2.8l-0.1-3h-0.1c-1,1.9-3.1,3.4-5.9,3.4c-4.2,0-7.5-3.6-7.5-8.9
				c0-5.8,3.6-9.4,7.8-9.4c2.7,0,4.5,1.3,5.3,2.7h0.1V21.5H1478.9z M1475.7,36.7c0-0.4,0-0.9-0.1-1.3c-0.5-2-2.2-3.7-4.6-3.7
				c-3.3,0-5.2,2.9-5.2,6.7c0,3.5,1.7,6.4,5.1,6.4c2.1,0,4.1-1.4,4.6-3.8c0.1-0.4,0.1-0.9,0.1-1.4V36.7z"/>
			<path d="M1487.6,24.7c0,1.1-0.8,1.9-2,1.9c-1.1,0-1.9-0.9-1.9-1.9c0-1.1,0.8-2,2-2C1486.9,22.7,1487.6,23.6,1487.6,24.7z
				 M1484.1,47V29.6h3.2V47H1484.1z"/>
			<path d="M1507.5,29.6c-0.1,1.3-0.1,2.7-0.1,4.8v10.1c0,4-0.8,6.4-2.5,8c-1.7,1.6-4.1,2.1-6.3,2.1c-2.1,0-4.4-0.5-5.8-1.4l0.8-2.4
				c1.2,0.7,3,1.4,5.1,1.4c3.2,0,5.6-1.7,5.6-6.1V44h-0.1c-1,1.6-2.8,2.9-5.5,2.9c-4.3,0-7.4-3.7-7.4-8.5c0-5.9,3.9-9.3,7.8-9.3
				c3,0,4.7,1.6,5.4,3h0.1l0.1-2.6H1507.5z M1504.3,36.5c0-0.5,0-1-0.2-1.4c-0.6-1.8-2.1-3.3-4.4-3.3c-3,0-5.2,2.6-5.2,6.6
				c0,3.4,1.7,6.3,5.1,6.3c1.9,0,3.7-1.2,4.4-3.2c0.2-0.5,0.3-1.2,0.3-1.7V36.5z"/>
			<path d="M1527.2,42.3c0,1.8,0,3.4,0.1,4.8h-2.8l-0.2-2.8h-0.1c-0.8,1.4-2.7,3.2-5.8,3.2c-2.7,0-6-1.5-6-7.6V29.6h3.2v9.6
				c0,3.3,1,5.5,3.9,5.5c2.1,0,3.6-1.5,4.2-2.9c0.2-0.5,0.3-1,0.3-1.6V29.6h3.2V42.3z"/>
			<path d="M1532.5,34.3c0-1.8,0-3.3-0.1-4.7h2.8l0.2,2.9h0.1c0.9-1.7,2.9-3.3,5.8-3.3c2.4,0,6.2,1.4,6.2,7.4V47h-3.2V37
				c0-2.8-1-5.1-4-5.1c-2.1,0-3.7,1.5-4.2,3.2c-0.1,0.4-0.2,0.9-0.2,1.5V47h-3.2V34.3z"/>
			<path class="st1" d="M1551.7,45.1c0-1.3,0.9-2.3,2.2-2.3c1.3,0,2.1,0.9,2.1,2.3c0,1.3-0.8,2.3-2.2,2.3
				C1552.6,47.4,1551.7,46.4,1551.7,45.1z"/>
		</g>
	</g>
	<g id="Layer_23">
		<g id="Layer_24">
		</g>
		<g>
			<path class="st1" d="M20,47l-0.3-2.2h-0.1c-1,1.4-2.8,2.6-5.3,2.6c-3.5,0-5.3-2.5-5.3-5c0-4.2,3.7-6.5,10.5-6.5v-0.4
				c0-1.4-0.4-4-4-4c-1.6,0-3.3,0.5-4.5,1.3l-0.7-2.1c1.4-0.9,3.5-1.5,5.7-1.5c5.3,0,6.6,3.6,6.6,7.1v6.5c0,1.5,0.1,3,0.3,4.2H20z
				 M19.5,38.1c-3.5-0.1-7.4,0.5-7.4,3.9c0,2.1,1.4,3,3,3c2.3,0,3.7-1.4,4.2-2.9c0.1-0.3,0.2-0.7,0.2-1V38.1z"/>
			<path d="M27.6,47c0.1-1.2,0.1-3,0.1-4.5V21.5h3.1v10.9h0.1c1.1-1.9,3.1-3.2,5.9-3.2c4.3,0,7.4,3.6,7.3,8.9c0,6.2-3.9,9.3-7.8,9.3
				c-2.5,0-4.5-1-5.8-3.3h-0.1L30.3,47H27.6z M30.9,40c0,0.4,0.1,0.8,0.1,1.2c0.6,2.2,2.4,3.7,4.8,3.7c3.3,0,5.3-2.7,5.3-6.7
				c0-3.5-1.8-6.5-5.2-6.5c-2.2,0-4.2,1.5-4.8,3.9c-0.1,0.4-0.2,0.8-0.2,1.3V40z"/>
			<path d="M63.2,21.5v21.1c0,1.5,0,3.3,0.1,4.5h-2.8l-0.1-3h-0.1c-1,1.9-3.1,3.4-5.9,3.4c-4.2,0-7.5-3.6-7.5-8.9
				c0-5.8,3.6-9.4,7.8-9.4c2.7,0,4.5,1.3,5.3,2.7h0.1V21.5H63.2z M60.1,36.7c0-0.4,0-0.9-0.1-1.3c-0.5-2-2.2-3.7-4.6-3.7
				c-3.3,0-5.2,2.9-5.2,6.7c0,3.5,1.7,6.4,5.1,6.4c2.1,0,4.1-1.4,4.6-3.8c0.1-0.4,0.1-0.9,0.1-1.4V36.7z"/>
			<path d="M72,24.7c0,1.1-0.8,1.9-2,1.9c-1.1,0-1.9-0.9-1.9-1.9c0-1.1,0.8-2,2-2C71.3,22.7,72,23.6,72,24.7z M68.5,47V29.6h3.2V47
				H68.5z"/>
			<path d="M91.9,29.6c-0.1,1.3-0.1,2.7-0.1,4.8v10.1c0,4-0.8,6.4-2.5,8c-1.7,1.6-4.1,2.1-6.3,2.1c-2.1,0-4.4-0.5-5.8-1.4l0.8-2.4
				c1.2,0.7,3,1.4,5.1,1.4c3.2,0,5.6-1.7,5.6-6.1V44h-0.1c-1,1.6-2.8,2.9-5.5,2.9c-4.3,0-7.4-3.7-7.4-8.5c0-5.9,3.9-9.3,7.8-9.3
				c3,0,4.7,1.6,5.4,3H89l0.1-2.6H91.9z M88.7,36.5c0-0.5,0-1-0.2-1.4c-0.6-1.8-2.1-3.3-4.4-3.3c-3,0-5.2,2.6-5.2,6.6
				c0,3.4,1.7,6.3,5.1,6.3c1.9,0,3.7-1.2,4.4-3.2c0.2-0.5,0.3-1.2,0.3-1.7V36.5z"/>
			<path d="M111.6,42.3c0,1.8,0,3.4,0.1,4.8H109l-0.2-2.8h-0.1c-0.8,1.4-2.7,3.2-5.8,3.2c-2.7,0-6-1.5-6-7.6V29.6h3.2v9.6
				c0,3.3,1,5.5,3.9,5.5c2.1,0,3.6-1.5,4.2-2.9c0.2-0.5,0.3-1,0.3-1.6V29.6h3.2V42.3z"/>
			<path d="M116.9,34.3c0-1.8,0-3.3-0.1-4.7h2.8l0.2,2.9h0.1c0.9-1.7,2.9-3.3,5.8-3.3c2.4,0,6.2,1.4,6.2,7.4V47h-3.2V37
				c0-2.8-1-5.1-4-5.1c-2.1,0-3.7,1.5-4.2,3.2c-0.1,0.4-0.2,0.9-0.2,1.5V47h-3.2V34.3z"/>
			<path d="M136.1,45.1c0-1.3,0.9-2.3,2.2-2.3c1.3,0,2.1,0.9,2.1,2.3c0,1.3-0.8,2.3-2.2,2.3C137,47.4,136.1,46.4,136.1,45.1z"/>
		</g>
	</g>
</g>
</svg>
